<svg version="1.1" viewBox="0.0 0.0 960.0 720.0" fill="none" stroke="none" stroke-linecap="square" stroke-miterlimit="10" xmlns:xlink="http://www.w3.org/1999/xlink" xmlns="http://www.w3.org/2000/svg"><clipPath id="p.0"><path d="m0 0l960.0 0l0 720.0l-960.0 0l0 -720.0z" clip-rule="nonzero"/></clipPath><g clip-path="url(#p.0)"><path fill="#000000" fill-opacity="0.0" d="m0 0l960.0 0l0 720.0l-960.0 0z" fill-rule="evenodd"/><path fill="#000000" fill-opacity="0.0" d="m14.343832 16.573929l249.57481 0l0 66.29921l-249.57481 0z" fill-rule="evenodd"/><path stroke="#000000" stroke-width="1.0" stroke-linejoin="round" stroke-linecap="butt" d="m14.343832 16.573929l249.57481 0l0 66.29921l-249.57481 0z" fill-rule="evenodd"/><path fill="#000000" d="m27.562582 43.33103l0 5.109375l5.390627 0l0 -5.109375l2.921875 0l0 13.3125l-2.921875 0l0 -5.75l-5.390627 0l0 5.75l-2.9375 0l0 -13.3125l2.9375 0zm16.859468 -0.328125q2.171875 0 3.765625 1.265625q1.609375 1.25 1.859375 3.4375l-2.796875 0q-0.28125 -1.125 -1.03125 -1.671875q-0.734375 -0.5625 -1.78125 -0.5625q-1.75 0 -2.6875 1.265625q-0.9375 1.25 -0.9375 3.296875q0 1.9375 0.921875 3.203125q0.9375 1.25 2.703125 1.25q1.390625 0 2.203125 -0.703125q0.828125 -0.71875 0.96875 -2.15625l-2.953125 0l0 -2.1875l5.59375 0l0 7.203125l-1.859375 0l-0.3125 -1.5q-0.71875 0.90625 -1.625 1.359375q-0.90625 0.453125 -2.03125 0.453125q-1.90625 0 -3.40625 -0.875q-1.5 -0.875 -2.328125 -2.46875q-0.8125 -1.609375 -0.8125 -3.578125q0 -3.078125 1.796875 -5.046875q1.796875 -1.984375 4.75 -1.984375zm11.109283 0.328125l5.546875 8.9375l0.046875 0l0 -8.9375l2.734375 0l0 13.3125l-2.921875 0l-5.546875 -8.921875l-0.03125 0l0 8.921875l-2.75 0l0 -13.3125l2.921875 0zm16.890717 -0.328125q2.265625 0 3.859375 1.28125q1.59375 1.28125 1.875 3.515625l-2.828125 0q-0.203125 -1.046875 -1.046875 -1.6875q-0.84375 -0.640625 -1.875 -0.640625q-1.71875 0 -2.671875 1.25q-0.9375 1.25 -0.9375 3.3125q0 1.984375 0.9375 3.21875q0.9375 1.234375 2.6875 1.234375q1.265625 0 2.046875 -0.765625q0.78125 -0.78125 0.96875 -2.203125l2.84375 0q-0.265625 2.53125 -1.859375 3.984375q-1.578125 1.453125 -4.0 1.453125q-1.921875 0 -3.421875 -0.875q-1.5 -0.875 -2.328125 -2.46875q-0.8125 -1.609375 -0.8125 -3.578125q0 -3.0625 1.796875 -5.046875q1.796875 -1.984375 4.765625 -1.984375zm13.171967 7.40625l0 2.28125l-5.609375 0l0 -2.28125l5.609375 0zm8.378571 -7.078125q2.078125 0 3.296875 1.171875q1.21875 1.15625 1.21875 3.09375q0 1.921875 -1.21875 3.109375q-1.21875 1.171875 -3.296875 1.171875l-3.171875 0l0 4.765625l-2.9375 0l0 -13.3125l6.109375 0zm-0.8125 6.265625q1.25 0 1.859375 -0.46875q0.625 -0.484375 0.625 -1.53125q0 -1.015625 -0.59375 -1.5q-0.59375 -0.5 -1.875 -0.5l-2.375 0l0 4.0l2.359375 0zm12.990448 -6.265625q2.65625 0 4.296875 1.734375q1.65625 1.734375 1.65625 4.84375q0 3.125 -1.609375 4.9375q-1.609375 1.796875 -4.34375 1.796875l-5.84375 0l0 -13.3125l5.84375 0zm-0.234375 10.859375q1.40625 0 2.328125 -1.0q0.921875 -1.015625 0.921875 -3.015625q0 -2.296875 -0.96875 -3.34375q-0.953125 -1.046875 -2.78125 -1.046875l-2.171875 0l0 8.40625l2.671875 0zm14.593842 -10.859375q2.03125 0 3.09375 0.8125q1.0625 0.796875 1.0625 2.46875q0 1.03125 -0.484375 1.703125q-0.46875 0.671875 -1.328125 1.09375q1.21875 0.359375 1.828125 1.234375q0.609375 0.859375 0.609375 2.140625q0 1.84375 -1.328125 2.859375q-1.328125 1.0 -3.28125 1.0l-6.546875 0l0 -13.3125l6.375 0zm-0.421875 5.390625q0.78125 0 1.25 -0.40625q0.484375 -0.40625 0.484375 -1.1875q0 -0.78125 -0.5 -1.15625q-0.484375 -0.375 -1.4375 -0.375l-2.8125 0l0 3.125l3.015625 0zm0.1875 5.640625q0.984375 0 1.53125 -0.421875q0.5625 -0.4375 0.5625 -1.328125q0 -0.9375 -0.53125 -1.421875q-0.515625 -0.484375 -1.515625 -0.484375l-3.25 0l0 3.65625l3.203125 0zm18.209816 -10.78125l0 13.0625l-2.640625 0l0 -8.46875l-3.28125 0l0 -2.0l0.171875 0q1.59375 0 2.515625 -0.65625q0.9375 -0.65625 1.125 -1.9375l2.109375 0zm7.110092 10.1875l0 2.875l-2.921875 0l0 -2.875l2.921875 0zm6.308304 -10.4375q2.328125 0 3.5625 1.703125q1.25 1.703125 1.25 5.015625q0 3.375 -1.234375 5.125q-1.21875 1.734375 -3.578125 1.734375q-2.34375 0 -3.5625 -1.734375q-1.21875 -1.734375 -1.21875 -5.125q0 -3.296875 1.21875 -5.0q1.21875 -1.71875 3.5625 -1.71875zm-2.125 6.75q0 2.015625 0.265625 2.9375q0.28125 0.90625 0.75 1.3125q0.46875 0.390625 1.109375 0.390625q1.046875 0 1.59375 -1.015625q0.5625 -1.03125 0.5625 -3.640625q0 -2.5 -0.5625 -3.53125q-0.546875 -1.03125 -1.609375 -1.03125q-1.0 0 -1.5625 1.0q-0.546875 0.984375 -0.546875 3.578125z" fill-rule="nonzero"/><path fill="#cfe2f3" d="m349.94336 154.036l168.10492 0l0 237.23195l-168.10492 0z" fill-rule="evenodd"/><path stroke="#595959" stroke-width="2.0" stroke-linejoin="round" stroke-linecap="butt" d="m349.94336 154.036l168.10492 0l0 237.23195l-168.10492 0z" fill-rule="evenodd"/><path fill="#cfe2f3" d="m349.94336 90.359375l168.10492 0l0 63.67662l-168.10492 0z" fill-rule="evenodd"/><path stroke="#595959" stroke-width="2.0" stroke-linejoin="round" stroke-linecap="butt" d="m349.94336 90.359375l168.10492 0l0 63.67662l-168.10492 0z" fill-rule="evenodd"/><path fill="#000000" d="m369.63086 103.96687l0 1.484375l-4.4375 0l0 11.828125l-1.765625 0l0 -11.828125l-4.453125 0l0 -1.484375l10.65625 0zm6.0252686 3.4375q0.046875 0 0.09375 0q0.046875 0 0.125 0.015625l0 1.671875q-1.796875 0 -2.65625 0.953125q-0.84375 0.9375 -0.84375 2.921875l0 4.3125l-1.578125 0l0 -9.640625l1.484375 0l0 2.03125l0.046875 0q0.546875 -1.15625 1.359375 -1.703125q0.828125 -0.5625 1.96875 -0.5625zm5.353302 0.015625q1.96875 0 2.78125 0.703125q0.828125 0.6875 0.828125 1.875q0 5.015625 0 5.5625q0 0.546875 0.5 0.546875q0.109375 0 0.234375 -0.03125q0.140625 -0.03125 0.25 -0.0625l0 1.234375q-0.21875 0.125 -0.5 0.1875q-0.28125 0.078125 -0.625 0.078125q-0.65625 0 -1.0 -0.375q-0.34375 -0.375 -0.34375 -1.125q-0.640625 0.75 -1.5 1.125q-0.84375 0.375 -1.90625 0.375q-1.484375 0 -2.34375 -0.703125q-0.84375 -0.71875 -0.84375 -2.015625q0 -1.296875 0.828125 -2.046875q0.828125 -0.765625 3.90625 -1.15625q1.03125 -0.140625 1.390625 -0.390625q0.375 -0.265625 0.375 -0.796875q0 -0.796875 -0.515625 -1.1875q-0.5 -0.40625 -1.625 -0.40625q-1.171875 0 -1.765625 0.453125q-0.59375 0.4375 -0.640625 1.375l-1.578125 0q0.078125 -1.609375 1.125 -2.40625q1.0625 -0.8125 2.96875 -0.8125zm-2.796875 7.265625q0 0.671875 0.484375 1.046875q0.5 0.375 1.390625 0.375q1.34375 0 2.140625 -0.65625q0.796875 -0.671875 0.796875 -1.5l0 -1.65625q-0.390625 0.28125 -1.03125 0.390625q-0.640625 0.09375 -1.703125 0.234375q-1.046875 0.15625 -1.5625 0.578125q-0.515625 0.421875 -0.515625 1.1875zm13.536072 -7.265625q1.75 0 2.53125 0.890625q0.796875 0.890625 0.796875 2.546875l0 6.421875l-1.59375 0l0 -6.59375q0 -0.8125 -0.53125 -1.34375q-0.515625 -0.53125 -1.4375 -0.53125q-1.34375 0 -2.09375 0.828125q-0.75 0.8125 -0.75 2.125l0 5.515625l-1.59375 0l0 -9.640625l1.5 0l0 1.53125l0.03125 0q0.53125 -0.90625 1.296875 -1.328125q0.78125 -0.421875 1.84375 -0.421875zm8.922577 0q1.9375 0 2.890625 0.75q0.953125 0.75 1.03125 2.265625l-1.578125 0l0 -0.03125q-0.0625 -0.765625 -0.671875 -1.171875q-0.609375 -0.421875 -1.5625 -0.421875q-0.953125 0 -1.515625 0.328125q-0.546875 0.3125 -0.546875 0.90625q0 0.515625 0.484375 0.859375q0.5 0.328125 1.484375 0.546875l1.484375 0.328125q1.40625 0.3125 2.125 0.953125q0.734375 0.640625 0.734375 1.734375q0 1.421875 -1.109375 2.234375q-1.09375 0.8125 -2.984375 0.8125q-1.859375 0 -2.953125 -0.828125q-1.078125 -0.84375 -1.140625 -2.453125l1.59375 0q0.03125 0.90625 0.703125 1.390625q0.6875 0.484375 1.875 0.484375q1.15625 0 1.75 -0.359375q0.59375 -0.375 0.59375 -1.078125q0 -0.65625 -0.59375 -1.03125q-0.59375 -0.375 -2.40625 -0.734375q-1.828125 -0.359375 -2.578125 -1.015625q-0.734375 -0.65625 -0.734375 -1.734375q0 -1.265625 1.03125 -2.0q1.03125 -0.734375 2.59375 -0.734375zm10.140625 0q1.765625 0 2.859375 0.84375q1.109375 0.828125 1.296875 2.46875l-1.625 0q-0.203125 -0.9375 -0.828125 -1.421875q-0.625 -0.5 -1.5625 -0.5q-1.484375 0 -2.25 0.984375q-0.765625 0.984375 -0.765625 2.78125q0 1.609375 0.75 2.578125q0.765625 0.953125 2.078125 0.953125q1.15625 0 1.8125 -0.625q0.671875 -0.625 0.828125 -1.734375l1.625 0q-0.265625 1.8125 -1.359375 2.796875q-1.09375 0.96875 -2.890625 0.96875q-2.109375 0 -3.3125 -1.328125q-1.203125 -1.328125 -1.203125 -3.609375q0 -2.359375 1.21875 -3.75q1.21875 -1.40625 3.328125 -1.40625zm10.801697 -0.015625q0.046875 0 0.09375 0q0.046875 0 0.125 0.015625l0 1.671875q-1.796875 0 -2.65625 0.953125q-0.84375 0.9375 -0.84375 2.921875l0 4.3125l-1.578125 0l0 -9.640625l1.484375 0l0 2.03125l0.046875 0q0.546875 -1.15625 1.359375 -1.703125q0.828125 -0.5625 1.96875 -0.5625zm3.087677 -3.4375l0 1.9375l-1.59375 0l0 -1.9375l1.59375 0zm0 3.671875l0 9.640625l-1.59375 0l0 -9.640625l1.59375 0zm7.2229614 -0.21875q2.0625 0 3.25 1.421875q1.1875 1.421875 1.1875 3.640625q0 2.25 -1.1875 3.640625q-1.171875 1.390625 -3.203125 1.390625q-0.90625 0 -1.765625 -0.375q-0.859375 -0.375 -1.359375 -1.140625l-0.046875 0l0 4.984375l-1.578125 0l0 -13.34375l1.578125 0l0 1.3125l0.046875 0q0.375 -0.75 1.171875 -1.140625q0.8125 -0.390625 1.90625 -0.390625zm-3.171875 5.03125q0 1.671875 0.8125 2.671875q0.8125 0.984375 2.234375 0.984375q1.375 0 2.125 -0.984375q0.75 -0.984375 0.75 -2.75q0 -1.546875 -0.796875 -2.546875q-0.796875 -1.015625 -2.1875 -1.015625q-1.40625 0 -2.171875 1.015625q-0.765625 1.015625 -0.765625 2.625zm11.668304 -7.703125l0 2.890625l1.921875 0l0 1.390625l-1.921875 0l0 6.046875q0 0.71875 0.484375 0.765625q0.484375 0.03125 1.0 0.03125l0.4375 0l0 1.40625l-1.296875 0q-1.3125 0 -1.765625 -0.453125q-0.4375 -0.46875 -0.4375 -1.5625l0 -6.234375l-1.65625 0l0 -1.390625l1.65625 0l0 -2.890625l1.578125 0z" fill-rule="nonzero"/><path fill="#000000" fill-opacity="0.0" d="m356.1628 167.47156l156.0657 0l0 41.224808l-156.0657 0z" fill-rule="evenodd"/><path fill="#000000" d="m368.4753 182.6952l0 10.46875l-2.296875 0l0 -10.46875l2.296875 0zm6.6036987 0q2.09375 0 3.390625 1.375q1.296875 1.359375 1.296875 3.8125q0 2.4375 -1.265625 3.859375q-1.265625 1.421875 -3.421875 1.421875l-4.578125 0l0 -10.46875l4.578125 0zm-0.171875 8.53125q1.09375 0 1.8125 -0.78125q0.734375 -0.796875 0.734375 -2.359375q0 -1.8125 -0.765625 -2.625q-0.75 -0.828125 -2.1875 -0.828125l-1.703125 0l0 6.59375l2.109375 0zm13.950989 -8.78125q-0.765625 1.453125 -1.1875 3.15625q-0.40625 1.703125 -0.40625 3.484375q0 1.796875 0.375 3.484375q0.390625 1.671875 1.203125 3.265625l-1.71875 0q-0.953125 -1.5625 -1.453125 -3.265625q-0.484375 -1.703125 -0.484375 -3.328125q0 -1.703125 0.5 -3.546875q0.5 -1.859375 1.4375 -3.25l1.734375 0zm3.2117615 0.25l0 4.015625l4.234375 0l0 -4.015625l2.296875 0l0 10.46875l-2.296875 0l0 -4.515625l-4.234375 0l0 4.515625l-2.296875 0l0 -10.46875l2.296875 0zm13.253998 -0.25q1.703125 0 2.953125 0.984375q1.265625 0.984375 1.453125 2.71875l-2.1875 0q-0.234375 -0.890625 -0.8125 -1.328125q-0.578125 -0.4375 -1.40625 -0.4375q-1.359375 0 -2.109375 1.0q-0.734375 0.984375 -0.734375 2.59375q0 1.515625 0.734375 2.515625q0.734375 0.984375 2.109375 0.984375q1.109375 0 1.75 -0.5625q0.640625 -0.5625 0.734375 -1.6875l-2.3125 0l0 -1.71875l4.40625 0l0 5.65625l-1.46875 0l-0.234375 -1.1875q-0.5625 0.71875 -1.28125 1.078125q-0.71875 0.359375 -1.59375 0.359375q-1.5 0 -2.6875 -0.6875q-1.171875 -0.6875 -1.8125 -1.953125q-0.640625 -1.265625 -0.640625 -2.796875q0 -2.421875 1.40625 -3.96875q1.40625 -1.5625 3.734375 -1.5625zm8.714752 0.25l4.375 7.03125l0.015625 0l0 -7.03125l2.15625 0l0 10.46875l-2.296875 0l-4.359375 -7.0l-0.03125 0l0 7.0l-2.140625 0l0 -10.46875l2.28125 0zm13.269623 -0.25q1.78125 0 3.03125 1.015625q1.265625 1.0 1.484375 2.75l-2.234375 0q-0.140625 -0.8125 -0.8125 -1.3125q-0.671875 -0.515625 -1.46875 -0.515625q-1.359375 0 -2.109375 0.984375q-0.734375 0.984375 -0.734375 2.609375q0 1.546875 0.734375 2.53125q0.75 0.96875 2.109375 0.96875q1.0 0 1.609375 -0.609375q0.609375 -0.609375 0.765625 -1.734375l2.234375 0q-0.203125 2.0 -1.453125 3.140625q-1.25 1.140625 -3.15625 1.140625q-1.515625 0 -2.6875 -0.6875q-1.171875 -0.6875 -1.8125 -1.953125q-0.640625 -1.265625 -0.640625 -2.796875q0 -2.40625 1.40625 -3.96875q1.40625 -1.5625 3.734375 -1.5625zm6.800873 0q0.953125 1.5625 1.4375 3.265625q0.5 1.6875 0.5 3.359375q0 1.671875 -0.5 3.53125q-0.5 1.859375 -1.4375 3.21875l-1.734375 0q0.796875 -1.515625 1.1875 -3.1875q0.40625 -1.671875 0.40625 -3.421875q0 -1.828125 -0.40625 -3.515625q-0.390625 -1.703125 -1.171875 -3.25l1.71875 0z" fill-rule="nonzero"/><path fill="#000000" fill-opacity="0.0" d="m356.16345 200.87079l156.06573 0l0 43.767548l-156.06573 0z" fill-rule="evenodd"/><path fill="#000000" d="m367.6947 217.36581l0 4.5l5.515625 0l0 -4.5l1.390625 0l0 10.46875l-1.390625 0l0 -4.796875l-5.515625 0l0 4.796875l-1.390625 0l0 -10.46875l1.390625 0zm13.678009 -0.25q1.84375 0 3.03125 0.890625q1.1875 0.890625 1.453125 2.578125l-1.390625 0q-0.203125 -1.09375 -1.015625 -1.6875q-0.8125 -0.609375 -2.09375 -0.609375q-1.671875 0 -2.625 1.25q-0.953125 1.234375 -0.953125 3.1875q0 1.796875 0.984375 3.0q0.984375 1.1875 2.59375 1.1875q1.5 0 2.421875 -0.90625q0.9375 -0.90625 0.9375 -2.34375l0 -0.171875l-3.34375 0l0 -1.171875l4.59375 0l0 5.515625l-0.875 0l-0.375 -1.296875q-0.5625 0.734375 -1.453125 1.140625q-0.875 0.40625 -1.90625 0.40625q-2.140625 0 -3.5625 -1.53125q-1.421875 -1.53125 -1.421875 -3.75q0 -2.46875 1.34375 -4.078125q1.34375 -1.609375 3.65625 -1.609375zm8.105377 0.25l5.515625 8.5l0.03125 0l0 -8.5l1.3125 0l0 10.46875l-1.53125 0l-5.46875 -8.40625l-0.015625 0l0 8.40625l-1.328125 0l0 -10.46875l1.484375 0zm13.55304 -0.25q1.75 0 2.90625 0.90625q1.171875 0.90625 1.40625 2.5l-1.390625 0q-0.234375 -1.078125 -1.015625 -1.65625q-0.765625 -0.578125 -1.921875 -0.578125q-1.65625 0 -2.59375 1.1875q-0.9375 1.171875 -0.9375 3.0625q0 2.0 0.921875 3.1875q0.921875 1.1875 2.625 1.1875q1.28125 0 2.09375 -0.8125q0.828125 -0.8125 0.9375 -2.203125l1.390625 0q-0.234375 2.03125 -1.421875 3.109375q-1.171875 1.078125 -3.109375 1.078125q-2.25 0 -3.546875 -1.484375q-1.296875 -1.5 -1.296875 -3.96875q0 -2.4375 1.34375 -3.96875q1.34375 -1.546875 3.609375 -1.546875zm11.671875 0.25l0 10.46875l-1.390625 0l0 -10.46875l1.390625 0zm6.011627 0q2.375 0 3.65625 1.265625q1.296875 1.265625 1.296875 3.734375q0 2.75 -1.28125 4.109375q-1.265625 1.359375 -3.671875 1.359375l-3.671875 0l0 -10.46875l3.671875 0zm0.09375 9.296875q1.5625 0 2.5 -1.015625q0.953125 -1.03125 0.953125 -3.09375q0 -2.078125 -0.859375 -3.03125q-0.859375 -0.96875 -2.546875 -0.96875l-2.421875 0l0 8.109375l2.375 0z" fill-rule="nonzero"/><path fill="#000000" fill-opacity="0.0" d="m356.16345 242.8855l156.06573 0l0 43.767548l-156.06573 0z" fill-rule="evenodd"/><path fill="#000000" d="m369.8197 250.13051q1.75 0 2.765625 0.84375q1.03125 0.84375 1.09375 2.46875l-1.3125 0q-0.125 -1.0625 -0.78125 -1.59375q-0.640625 -0.546875 -1.828125 -0.546875q-1.109375 0 -1.734375 0.46875q-0.609375 0.46875 -0.609375 1.328125q0 0.609375 0.53125 1.0q0.53125 0.390625 2.84375 0.859375q1.671875 0.34375 2.5 1.0625153q0.828125 0.703125 0.828125 1.953125q0 1.46875 -1.203125 2.296875q-1.1875 0.828125 -2.890625 0.828125q-1.890625 0 -3.09375 -0.953125q-1.203125 -0.953125 -1.21875 -2.734375l1.3125 0q0.015625 1.1875 0.859375 1.859375q0.84375 0.65625 2.1875 0.65625q1.265625 0 1.953125 -0.484375q0.703125 -0.5 0.703125 -1.421875q0 -0.75 -0.640625 -1.1875q-0.625 -0.453125 -2.3125 -0.78125q-2.21875 -0.42189026 -2.984375 -1.0937653q-0.765625 -0.671875 -0.765625 -1.765625q0 -1.40625 1.0625 -2.234375q1.078125 -0.828125 2.734375 -0.828125zm7.5121155 0.875l0 2.265625l1.5 0l0 1.109375l-1.5 0l0 4.7343903q0 0.5625 0.375 0.59375q0.375 0.03125 0.78125 0.03125l0.34375 0l0 1.109375l-1.015625 0q-1.03125 0 -1.390625 -0.359375q-0.34375 -0.375 -0.34375 -1.234375l0 -4.8750153l-1.296875 0l0 -1.109375l1.296875 0l0 -2.265625l1.25 0zm5.9752502 2.09375q1.546875 0 2.1875 0.5625q0.65625 0.546875 0.65625 1.46875q0 3.9375153 0 4.3750153q0 0.421875 0.390625 0.421875q0.09375 0 0.1875 -0.015625q0.109375 -0.03125 0.203125 -0.0625l0 0.96875q-0.171875 0.109375 -0.40625 0.15625q-0.21875 0.046875 -0.484375 0.046875q-0.515625 0 -0.796875 -0.28125q-0.265625 -0.296875 -0.265625 -0.890625q-0.5 0.59375 -1.171875 0.890625q-0.671875 0.28125 -1.5 0.28125q-1.171875 0 -1.84375 -0.546875q-0.65625 -0.5625 -0.65625 -1.578125q0 -1.015625 0.640625 -1.609375q0.65625 -0.609375 3.078125 -0.90625q0.8125 -0.109375 1.09375 -0.3125q0.296875 -0.20314026 0.296875 -0.62501526q0 -0.625 -0.40625 -0.9375q-0.40625 -0.3125 -1.28125 -0.3125q-0.921875 0 -1.390625 0.359375q-0.453125 0.34375 -0.5 1.078125l-1.234375 0q0.046875 -1.25 0.875 -1.890625q0.84375 -0.640625 2.328125 -0.640625zm-2.1875 5.7031403q0 0.53125 0.390625 0.828125q0.390625 0.296875 1.078125 0.296875q1.046875 0 1.671875 -0.515625q0.640625 -0.53125 0.640625 -1.171875l0 -1.3125q-0.3125 0.234375 -0.8125 0.3125q-0.5 0.078125 -1.328125 0.1875q-0.84375 0.125 -1.25 0.453125q-0.390625 0.328125 -0.390625 0.921875zm8.247009 -8.42189l0 3.921875l0.03125 0q0.296875 -0.59375 0.921875 -0.890625q0.625 -0.3125 1.5 -0.3125q1.625 0 2.5625 1.125q0.9375 1.109375 0.9375 2.8593903q0 1.765625 -0.9375 2.859375q-0.921875 1.078125 -2.53125 1.078125q-0.703125 0 -1.390625 -0.28125q-0.671875 -0.296875 -1.0625 -0.90625l-0.03125 0l0 1.015625l-1.234375 0l0 -10.468765l1.234375 0zm-0.03125 6.6718903q0 1.328125 0.625 2.109375q0.640625 0.765625 1.765625 0.765625q1.078125 0 1.671875 -0.765625q0.59375 -0.78125 0.59375 -2.15625q0 -1.2343903 -0.625 -2.0156403q-0.625 -0.796875 -1.734375 -0.796875q-1.09375 0 -1.703125 0.8125q-0.59375 0.796875 -0.59375 2.0468903zm8.750336 -6.6718903l0 10.468765l-1.234375 0l0 -10.468765l1.234375 0zm5.099884 2.71875q1.625 0 2.515625 1.171875q0.90625 1.171875 0.90625 3.0156403l0 0.15625l-5.671875 0l0 0.078125q0 1.09375 0.625 1.75q0.640625 0.65625 1.734375 0.65625q0.828125 0 1.3125 -0.390625q0.5 -0.390625 0.65625 -1.09375l1.234375 0q-0.25 1.265625 -1.109375 1.921875q-0.84375 0.65625 -2.125 0.65625q-1.203125 0 -2.03125 -0.53125q-0.828125 -0.546875 -1.21875 -1.5q-0.390625 -0.96875 -0.390625 -1.96875q0 -1.6875153 1.0 -2.7968903q1.015625 -1.125 2.5625 -1.125zm-2.25 3.2343903l4.359375 0q-0.0625 -0.92189026 -0.671875 -1.5312653q-0.609375 -0.609375 -1.53125 -0.609375q-0.859375 0 -1.46875 0.578125q-0.609375 0.578125 -0.6875 1.5625153zm12.694 -5.9531403l0 10.468765l-1.390625 0l0 -10.468765l1.390625 0zm6.011627 0q2.375 0 3.65625 1.265625q1.296875 1.265625 1.296875 3.734375q0 2.7500153 -1.28125 4.1093903q-1.265625 1.359375 -3.671875 1.359375l-3.671875 0l0 -10.468765l3.671875 0zm0.09375 9.29689q1.5625 0 2.5 -1.015625q0.953125 -1.03125 0.953125 -3.0937653q0 -2.078125 -0.859375 -3.03125q-0.859375 -0.96875 -2.546875 -0.96875l-2.421875 0l0 8.10939l2.375 0z" fill-rule="nonzero"/><path fill="#000000" fill-opacity="0.0" d="m356.16345 290.49817l156.06573 0l0 43.767517l-156.06573 0z" fill-rule="evenodd"/><path fill="#000000" d="m369.8197 306.74316q1.75 0 2.765625 0.84375q1.03125 0.84375 1.09375 2.46875l-1.3125 0q-0.125 -1.0625 -0.78125 -1.59375q-0.640625 -0.546875 -1.828125 -0.546875q-1.109375 0 -1.734375 0.46875q-0.609375 0.46875 -0.609375 1.328125q0 0.609375 0.53125 1.0q0.53125 0.390625 2.84375 0.859375q1.671875 0.34375 2.5 1.0625q0.828125 0.703125 0.828125 1.953125q0 1.46875 -1.203125 2.296875q-1.1875 0.828125 -2.890625 0.828125q-1.890625 0 -3.09375 -0.953125q-1.203125 -0.953125 -1.21875 -2.734375l1.3125 0q0.015625 1.1875 0.859375 1.859375q0.84375 0.65625 2.1875 0.65625q1.265625 0 1.953125 -0.484375q0.703125 -0.5 0.703125 -1.421875q0 -0.75 -0.640625 -1.1875q-0.625 -0.453125 -2.3125 -0.78125q-2.21875 -0.421875 -2.984375 -1.09375q-0.765625 -0.671875 -0.765625 -1.765625q0 -1.40625 1.0625 -2.234375q1.078125 -0.828125 2.734375 -0.828125zm7.5121155 0.875l0 2.265625l1.5 0l0 1.109375l-1.5 0l0 4.734375q0 0.5625 0.375 0.59375q0.375 0.03125 0.78125 0.03125l0.34375 0l0 1.109375l-1.015625 0q-1.03125 0 -1.390625 -0.359375q-0.34375 -0.375 -0.34375 -1.234375l0 -4.875l-1.296875 0l0 -1.109375l1.296875 0l0 -2.265625l1.25 0zm5.9752502 2.09375q1.546875 0 2.1875 0.5625q0.65625 0.546875 0.65625 1.46875q0 3.9375 0 4.375q0 0.421875 0.390625 0.421875q0.09375 0 0.1875 -0.015625q0.109375 -0.03125 0.203125 -0.0625l0 0.96875q-0.171875 0.109375 -0.40625 0.15625q-0.21875 0.046875 -0.484375 0.046875q-0.515625 0 -0.796875 -0.28125q-0.265625 -0.296875 -0.265625 -0.890625q-0.5 0.59375 -1.171875 0.890625q-0.671875 0.28125 -1.5 0.28125q-1.171875 0 -1.84375 -0.546875q-0.65625 -0.5625 -0.65625 -1.578125q0 -1.015625 0.640625 -1.609375q0.65625 -0.609375 3.078125 -0.90625q0.8125 -0.109375 1.09375 -0.3125q0.296875 -0.203125 0.296875 -0.625q0 -0.625 -0.40625 -0.9375q-0.40625 -0.3125 -1.28125 -0.3125q-0.921875 0 -1.390625 0.359375q-0.453125 0.34375 -0.5 1.078125l-1.234375 0q0.046875 -1.25 0.875 -1.890625q0.84375 -0.640625 2.328125 -0.640625zm-2.1875 5.703125q0 0.53125 0.390625 0.828125q0.390625 0.296875 1.078125 0.296875q1.046875 0 1.671875 -0.515625q0.640625 -0.53125 0.640625 -1.171875l0 -1.3125q-0.3125 0.234375 -0.8125 0.3125q-0.5 0.078125 -1.328125 0.1875q-0.84375 0.125 -1.25 0.453125q-0.390625 0.328125 -0.390625 0.921875zm10.731384 -5.703125q0.046875 0 0.078125 0q0.046875 0 0.09375 0l0 1.3125q-1.390625 0 -2.0625 0.75q-0.671875 0.75 -0.671875 2.296875l0 3.390625l-1.25 0l0 -7.578125l1.171875 0l0 1.59375l0.03125 0q0.4375 -0.90625 1.078125 -1.328125q0.640625 -0.4375 1.53125 -0.4375zm2.8493958 -2.09375l0 2.265625l1.5 0l0 1.109375l-1.5 0l0 4.734375q0 0.5625 0.375 0.59375q0.375 0.03125 0.78125 0.03125l0.34375 0l0 1.109375l-1.015625 0q-1.03125 0 -1.390625 -0.359375q-0.34375 -0.375 -0.34375 -1.234375l0 -4.875l-1.296875 0l0 -1.109375l1.296875 0l0 -2.265625l1.25 0z" fill-rule="nonzero"/><path fill="#c9daf8" d="m61.13567 240.13979l157.50975 0l0 165.76378l-157.50975 0z" fill-rule="evenodd"/><path stroke="#595959" stroke-width="2.0" stroke-linejoin="round" stroke-linecap="butt" d="m61.13567 240.13979l157.50975 0l0 165.76378l-157.50975 0z" fill-rule="evenodd"/><path fill="#c9daf8" d="m61.13567 203.06891l157.50975 0l0 37.070877l-157.50975 0z" fill-rule="evenodd"/><path stroke="#595959" stroke-width="2.0" stroke-linejoin="round" stroke-linecap="butt" d="m61.13567 203.06891l157.50975 0l0 37.070877l-157.50975 0z" fill-rule="evenodd"/><path fill="#000000" d="m73.35442 216.6764l0 5.71875l7.015625 0l0 -5.71875l1.78125 0l0 13.3125l-1.78125 0l0 -6.109375l-7.015625 0l0 6.109375l-1.765625 0l0 -13.3125l1.765625 0zm17.410446 -0.328125q2.359375 0 3.859375 1.140625q1.515625 1.125 1.859375 3.28125l-1.765625 0q-0.265625 -1.40625 -1.3125 -2.15625q-1.03125 -0.765625 -2.65625 -0.765625q-2.125 0 -3.34375 1.578125q-1.21875 1.578125 -1.21875 4.0625q0 2.296875 1.25 3.8125q1.265625 1.515625 3.3125 1.515625q1.921875 0 3.09375 -1.15625q1.1875 -1.15625 1.1875 -2.984375l0 -0.203125l-4.265625 0l0 -1.5l5.84375 0l0 7.015625l-1.109375 0l-0.46875 -1.65625q-0.734375 0.953125 -1.859375 1.46875q-1.125 0.5 -2.421875 0.5q-2.71875 0 -4.53125 -1.953125q-1.8125 -1.953125 -1.8125 -4.765625q0 -3.15625 1.703125 -5.1875q1.71875 -2.046875 4.65625 -2.046875zm10.328033 0.328125l7.015625 10.796875l0.03125 0l0 -10.796875l1.671875 0l0 13.3125l-1.9375 0l-6.953125 -10.6875l-0.046875 0l0 10.6875l-1.671875 0l0 -13.3125l1.890625 0zm17.254196 -0.328125q2.203125 0 3.6875 1.15625q1.5 1.140625 1.796875 3.171875l-1.765625 0q-0.296875 -1.359375 -1.296875 -2.09375q-0.984375 -0.734375 -2.4375 -0.734375q-2.125 0 -3.328125 1.5q-1.1875 1.484375 -1.1875 3.890625q0 2.546875 1.171875 4.0625q1.171875 1.515625 3.359375 1.515625q1.625 0 2.671875 -1.03125q1.046875 -1.046875 1.171875 -2.8125l1.765625 0q-0.28125 2.578125 -1.796875 3.953125q-1.5 1.375 -3.96875 1.375q-2.859375 0 -4.515625 -1.890625q-1.640625 -1.890625 -1.640625 -5.046875q0 -3.109375 1.703125 -5.0625q1.703125 -1.953125 4.609375 -1.953125z" fill-rule="nonzero"/><path fill="#000000" fill-opacity="0.0" d="m66.963135 247.96161l146.22931 0l0 24.0l-146.22931 0z" fill-rule="evenodd"/><path fill="#000000" d="m79.275635 254.57286l0 10.468765l-2.296875 0l0 -10.468765l2.296875 0zm6.6036987 0q2.09375 0 3.390625 1.375q1.296875 1.3593903 1.296875 3.8125153q0 2.4375 -1.265625 3.859375q-1.265625 1.421875 -3.421875 1.421875l-4.578125 0l0 -10.468765l4.578125 0zm-0.171875 8.531265q1.09375 0 1.8125 -0.78125q0.734375 -0.796875 0.734375 -2.359375q0 -1.8125 -0.765625 -2.625q-0.75 -0.828125 -2.1875 -0.828125l-1.703125 0l0 6.59375l2.109375 0z" fill-rule="nonzero"/><path fill="#000000" fill-opacity="0.0" d="m66.96372 272.06317l146.22931 0l0 25.480316l-146.22931 0z" fill-rule="evenodd"/><path fill="#000000" d="m81.58872 279.16458q1.84375 0 3.03125 0.890625q1.1875 0.890625 1.453125 2.578125l-1.390625 0q-0.203125 -1.09375 -1.015625 -1.6875q-0.8125 -0.609375 -2.09375 -0.609375q-1.671875 0 -2.625 1.25q-0.953125 1.234375 -0.953125 3.1875q0 1.796875 0.984375 3.0q0.984375 1.1875 2.59375 1.1875q1.5 0 2.421875 -0.90625q0.9375 -0.90625 0.9375 -2.34375l0 -0.171875l-3.34375 0l0 -1.171875l4.59375 0l0 5.515625l-0.875 0l-0.375 -1.296875q-0.5625 0.734375 -1.453125 1.140625q-0.875 0.40625 -1.90625 0.40625q-2.140625 0 -3.5625 -1.53125q-1.421875 -1.53125 -1.421875 -3.75q0 -2.46875 1.34375 -4.078125q1.34375 -1.609375 3.65625 -1.609375zm9.589752 2.96875q1.625 0 2.515625 1.171875q0.90625 1.171875 0.90625 3.015625l0 0.15625l-5.671875 0l0 0.078125q0 1.09375 0.625 1.75q0.640625 0.65625 1.734375 0.65625q0.828125 0 1.3125 -0.390625q0.5 -0.390625 0.65625 -1.09375l1.234375 0q-0.25 1.265625 -1.109375 1.921875q-0.84375 0.65625 -2.125 0.65625q-1.203125 0 -2.03125 -0.53125q-0.828125 -0.546875 -1.21875 -1.5q-0.390625 -0.96875 -0.390625 -1.96875q0 -1.6875 1.0 -2.796875q1.015625 -1.125 2.5625 -1.125zm-2.25 3.234375l4.359375 0q-0.0625 -0.921875 -0.671875 -1.53125q-0.609375 -0.609375 -1.53125 -0.609375q-0.859375 0 -1.46875 0.578125q-0.609375 0.578125 -0.6875 1.5625zm10.637634 -3.234375q1.359375 0 1.984375 0.703125q0.625 0.703125 0.625 2.0l0 5.046875l-1.25 0l0 -5.171875q0 -0.640625 -0.421875 -1.0625q-0.40625 -0.421875 -1.125 -0.421875q-1.0625 0 -1.65625 0.65625q-0.578125 0.640625 -0.578125 1.671875l0 4.328125l-1.25 0l0 -7.578125l1.171875 0l0 1.203125l0.03125 0q0.421875 -0.703125 1.015625 -1.03125q0.609375 -0.34375 1.453125 -0.34375zm7.635483 0q1.625 0 2.515625 1.171875q0.90625 1.171875 0.90625 3.015625l0 0.15625l-5.671875 0l0 0.078125q0 1.09375 0.625 1.75q0.640625 0.65625 1.734375 0.65625q0.828125 0 1.3125 -0.390625q0.5 -0.390625 0.65625 -1.09375l1.234375 0q-0.25 1.265625 -1.109375 1.921875q-0.84375 0.65625 -2.125 0.65625q-1.203125 0 -2.03125 -0.53125q-0.828125 -0.546875 -1.21875 -1.5q-0.390625 -0.96875 -0.390625 -1.96875q0 -1.6875 1.0 -2.796875q1.015625 -1.125 2.5625 -1.125zm-2.25 3.234375l4.359375 0q-0.0625 -0.921875 -0.671875 -1.53125q-0.609375 -0.609375 -1.53125 -0.609375q-0.859375 0 -1.46875 0.578125q-0.609375 0.578125 -0.6875 1.5625zm14.912735 -5.953125q2.375 0 3.65625 1.265625q1.296875 1.265625 1.296875 3.734375q0 2.75 -1.28125 4.109375q-1.265625 1.359375 -3.671875 1.359375l-3.671875 0l0 -10.46875l3.671875 0zm0.09375 9.296875q1.5625 0 2.5 -1.015625q0.953125 -1.03125 0.953125 -3.09375q0 -2.078125 -0.859375 -3.03125q-0.859375 -0.96875 -2.546875 -0.96875l-2.421875 0l0 8.109375l2.375 0zm9.506981 -6.578125q1.625 0 2.515625 1.171875q0.90625 1.171875 0.90625 3.015625l0 0.15625l-5.6718674 0l0 0.078125q0 1.09375 0.625 1.75q0.6406174 0.65625 1.7343674 0.65625q0.828125 0 1.3125 -0.390625q0.5 -0.390625 0.65625 -1.09375l1.234375 0q-0.25 1.265625 -1.109375 1.921875q-0.84375 0.65625 -2.125 0.65625q-1.203125 0 -2.0312424 -0.53125q-0.828125 -0.546875 -1.21875 -1.5q-0.390625 -0.96875 -0.390625 -1.96875q0 -1.6875 1.0 -2.796875q1.015625 -1.125 2.5624924 -1.125zm-2.2499924 3.234375l4.3593674 0q-0.0625 -0.921875 -0.671875 -1.53125q-0.609375 -0.609375 -1.53125 -0.609375q-0.859375 0 -1.4687424 0.578125q-0.609375 0.578125 -0.6875 1.5625zm9.481377 -3.234375q1.53125 0 2.265625 0.59375q0.75 0.59375 0.828125 1.78125l-1.25 0l0 -0.015625q-0.046875 -0.609375 -0.53125 -0.9375q-0.46875 -0.328125 -1.21875 -0.328125q-0.75 0 -1.1875 0.265625q-0.421875 0.25 -0.421875 0.703125q0 0.40625 0.375 0.671875q0.390625 0.265625 1.15625 0.4375l1.171875 0.265625q1.109375 0.234375 1.671875 0.75q0.578125 0.5 0.578125 1.34375q0 1.125 -0.875 1.765625q-0.859375 0.625 -2.34375 0.625q-1.453125 0 -2.3125 -0.640625q-0.84375 -0.65625 -0.90625 -1.921875l1.25 0q0.015625 0.703125 0.546875 1.09375q0.546875 0.375 1.484375 0.375q0.90625 0 1.359375 -0.28125q0.46875 -0.296875 0.46875 -0.84375q0 -0.515625 -0.46875 -0.8125q-0.453125 -0.296875 -1.875 -0.578125q-1.4375 -0.28125 -2.03125 -0.796875q-0.578125 -0.515625 -0.578125 -1.359375q0 -1.0 0.8125 -1.578125q0.8125 -0.578125 2.03125 -0.578125zm7.96875 0q1.390625 0 2.25 0.65625q0.875 0.65625 1.03125 1.953125l-1.296875 0q-0.140625 -0.734375 -0.640625 -1.125q-0.484375 -0.390625 -1.234375 -0.390625q-1.15625 0 -1.765625 0.78125q-0.59375 0.765625 -0.59375 2.1875q0 1.25 0.59375 2.015625q0.59375 0.75 1.625 0.75q0.90625 0 1.421875 -0.484375q0.53125 -0.5 0.65625 -1.359375l1.265625 0q-0.203125 1.40625 -1.0625 2.171875q-0.859375 0.765625 -2.265625 0.765625q-1.65625 0 -2.609375 -1.03125q-0.9375 -1.046875 -0.9375 -2.828125q0 -1.859375 0.953125 -2.953125q0.953125 -1.109375 2.609375 -1.109375zm8.481384 0q0.046875 0 0.078125 0q0.046875 0 0.09375 0l0 1.3125q-1.390625 0 -2.0625 0.75q-0.671875 0.75 -0.671875 2.296875l0 3.390625l-1.25 0l0 -7.578125l1.171875 0l0 1.59375l0.03125 0q0.4375 -0.90625 1.078125 -1.328125q0.640625 -0.4375 1.53125 -0.4375zm2.4275208 -2.71875l0 1.53125l-1.234375 0l0 -1.53125l1.234375 0zm0 2.890625l0 7.578125l-1.234375 0l0 -7.578125l1.234375 0zm5.6780243 -0.171875q1.625 0 2.5625 1.125q0.9375 1.109375 0.9375 2.859375q0 1.765625 -0.9375 2.859375q-0.921875 1.078125 -2.53125 1.078125q-0.703125 0 -1.390625 -0.28125q-0.671875 -0.296875 -1.0625 -0.90625l-0.03125 0l0 3.921875l-1.234375 0l0 -10.484375l1.234375 0l0 1.03125l0.03125 0q0.296875 -0.59375 0.921875 -0.890625q0.640625 -0.3125 1.5 -0.3125zm-2.484375 3.953125q0 1.328125 0.625 2.109375q0.640625 0.765625 1.765625 0.765625q1.078125 0 1.671875 -0.765625q0.59375 -0.78125 0.59375 -2.15625q0 -1.234375 -0.625 -2.015625q-0.625 -0.796875 -1.734375 -0.796875q-1.09375 0 -1.703125 0.8125q-0.59375 0.796875 -0.59375 2.046875zm9.172211 -6.046875l0 2.265625l1.5 0l0 1.109375l-1.5 0l0 4.734375q0 0.5625 0.375 0.59375q0.375 0.03125 0.78125 0.03125l0.34375 0l0 1.109375l-1.015625 0q-1.03125 0 -1.390625 -0.359375q-0.34375 -0.375 -0.34375 -1.234375l0 -4.875l-1.296875 0l0 -1.109375l1.296875 0l0 -2.265625l1.25 0zm4.193985 -0.625l0 1.53125l-1.234375 0l0 -1.53125l1.234375 0zm0 2.890625l0 7.578125l-1.234375 0l0 -7.578125l1.234375 0zm5.2092743 -0.171875q1.71875 0 2.703125 1.109375q0.984375 1.109375 0.984375 2.859375q0 1.765625 -1.015625 2.859375q-1.0 1.09375 -2.671875 1.09375q-1.640625 0 -2.65625 -1.0625q-1.015625 -1.078125 -1.015625 -2.890625q0 -1.796875 0.984375 -2.875q1.0 -1.09375 2.6875 -1.09375zm-2.359375 3.96875q0 1.3125 0.65625 2.09375q0.671875 0.765625 1.703125 0.765625q1.03125 0 1.6875 -0.78125q0.671875 -0.78125 0.671875 -2.078125q0 -1.296875 -0.671875 -2.078125q-0.65625 -0.796875 -1.703125 -0.796875q-1.0 0 -1.671875 0.78125q-0.671875 0.765625 -0.671875 2.09375zm11.181519 -3.96875q1.359375 0 1.984375 0.703125q0.625 0.703125 0.625 2.0l0 5.046875l-1.25 0l0 -5.171875q0 -0.640625 -0.421875 -1.0625q-0.40625 -0.421875 -1.125 -0.421875q-1.0625 0 -1.65625 0.65625q-0.578125 0.640625 -0.578125 1.671875l0 4.328125l-1.25 0l0 -7.578125l1.171875 0l0 1.203125l0.03125 0q0.421875 -0.703125 1.015625 -1.03125q0.609375 -0.34375 1.453125 -0.34375z" fill-rule="nonzero"/><path fill="#000000" fill-opacity="0.0" d="m66.96372 297.42673l146.22931 0l0 25.480316l-146.22931 0z" fill-rule="evenodd"/><path fill="#000000" d="m81.58872 304.52814q1.84375 0 3.03125 0.890625q1.1875 0.890625 1.453125 2.578125l-1.390625 0q-0.203125 -1.09375 -1.015625 -1.6875q-0.8125 -0.609375 -2.09375 -0.609375q-1.671875 0 -2.625 1.25q-0.953125 1.234375 -0.953125 3.1875q0 1.796875 0.984375 3.0q0.984375 1.1875 2.59375 1.1875q1.5 0 2.421875 -0.90625q0.9375 -0.90625 0.9375 -2.34375l0 -0.171875l-3.34375 0l0 -1.171875l4.59375 0l0 5.515625l-0.875 0l-0.375 -1.296875q-0.5625 0.734375 -1.453125 1.140625q-0.875 0.40625 -1.90625 0.40625q-2.140625 0 -3.5625 -1.53125q-1.421875 -1.53125 -1.421875 -3.75q0 -2.46875 1.34375 -4.078125q1.34375 -1.609375 3.65625 -1.609375zm9.589752 2.96875q1.625 0 2.515625 1.171875q0.90625 1.171875 0.90625 3.015625l0 0.15625l-5.671875 0l0 0.078125q0 1.09375 0.625 1.75q0.640625 0.65625 1.734375 0.65625q0.828125 0 1.3125 -0.390625q0.5 -0.390625 0.65625 -1.09375l1.234375 0q-0.25 1.265625 -1.109375 1.921875q-0.84375 0.65625 -2.125 0.65625q-1.203125 0 -2.03125 -0.53125q-0.828125 -0.546875 -1.21875 -1.5q-0.390625 -0.96875 -0.390625 -1.96875q0 -1.6875 1.0 -2.796875q1.015625 -1.125 2.5625 -1.125zm-2.25 3.234375l4.359375 0q-0.0625 -0.921875 -0.671875 -1.53125q-0.609375 -0.609375 -1.53125 -0.609375q-0.859375 0 -1.46875 0.578125q-0.609375 0.578125 -0.6875 1.5625zm10.637634 -3.234375q1.359375 0 1.984375 0.703125q0.625 0.703125 0.625 2.0l0 5.046875l-1.25 0l0 -5.171875q0 -0.640625 -0.421875 -1.0625q-0.40625 -0.421875 -1.125 -0.421875q-1.0625 0 -1.65625 0.65625q-0.578125 0.640625 -0.578125 1.671875l0 4.328125l-1.25 0l0 -7.578125l1.171875 0l0 1.203125l0.03125 0q0.421875 -0.703125 1.015625 -1.03125q0.609375 -0.34375 1.453125 -0.34375zm7.635483 0q1.625 0 2.515625 1.171875q0.90625 1.171875 0.90625 3.015625l0 0.15625l-5.671875 0l0 0.078125q0 1.09375 0.625 1.75q0.640625 0.65625 1.734375 0.65625q0.828125 0 1.3125 -0.390625q0.5 -0.390625 0.65625 -1.09375l1.234375 0q-0.25 1.265625 -1.109375 1.921875q-0.84375 0.65625 -2.125 0.65625q-1.203125 0 -2.03125 -0.53125q-0.828125 -0.546875 -1.21875 -1.5q-0.390625 -0.96875 -0.390625 -1.96875q0 -1.6875 1.0 -2.796875q1.015625 -1.125 2.5625 -1.125zm-2.25 3.234375l4.359375 0q-0.0625 -0.921875 -0.671875 -1.53125q-0.609375 -0.609375 -1.53125 -0.609375q-0.859375 0 -1.46875 0.578125q-0.609375 0.578125 -0.6875 1.5625zm14.756485 -6.203125q1.75 0 2.765625 0.84375q1.03125 0.84375 1.09375 2.46875l-1.3125 0q-0.125 -1.0625 -0.78125 -1.59375q-0.640625 -0.546875 -1.828125 -0.546875q-1.109375 0 -1.734375 0.46875q-0.609375 0.46875 -0.609375 1.328125q0 0.609375 0.53125 1.0q0.53125 0.390625 2.84375 0.859375q1.671875 0.34375 2.5 1.0625q0.828125 0.703125 0.828125 1.953125q0 1.46875 -1.203125 2.296875q-1.1875 0.828125 -2.890625 0.828125q-1.890625 0 -3.09375 -0.953125q-1.203125 -0.953125 -1.21875 -2.734375l1.3125 0q0.015625 1.1875 0.859375 1.859375q0.84375 0.65625 2.1875 0.65625q1.265625 0 1.953125 -0.484375q0.703125 -0.5 0.703125 -1.421875q0 -0.75 -0.640625 -1.1875q-0.625 -0.453125 -2.3125 -0.78125q-2.21875 -0.421875 -2.984375 -1.09375q-0.765625 -0.671875 -0.765625 -1.765625q0 -1.40625 1.0625 -2.234375q1.078125 -0.828125 2.734375 -0.828125zm7.5121307 0.875l0 2.265625l1.4999924 0l0 1.109375l-1.4999924 0l0 4.734375q0 0.5625 0.375 0.59375q0.375 0.03125 0.7812424 0.03125l0.34375 0l0 1.109375l-1.0156174 0q-1.03125 0 -1.390625 -0.359375q-0.34375 -0.375 -0.34375 -1.234375l0 -4.875l-1.296875 0l0 -1.109375l1.296875 0l0 -2.265625l1.25 0zm5.9752274 2.09375q1.546875 0 2.1875 0.5625q0.65625 0.546875 0.65625 1.46875q0 3.9375 0 4.375q0 0.421875 0.390625 0.421875q0.09375 0 0.1875 -0.015625q0.109375 -0.03125 0.203125 -0.0625l0 0.96875q-0.171875 0.109375 -0.40625 0.15625q-0.21875 0.046875 -0.484375 0.046875q-0.515625 0 -0.796875 -0.28125q-0.265625 -0.296875 -0.265625 -0.890625q-0.5 0.59375 -1.171875 0.890625q-0.671875 0.28125 -1.5 0.28125q-1.171875 0 -1.84375 -0.546875q-0.65625 -0.5625 -0.65625 -1.578125q0 -1.015625 0.640625 -1.609375q0.65625 -0.609375 3.078125 -0.90625q0.8125 -0.109375 1.09375 -0.3125q0.296875 -0.203125 0.296875 -0.625q0 -0.625 -0.40625 -0.9375q-0.40625 -0.3125 -1.28125 -0.3125q-0.921875 0 -1.390625 0.359375q-0.453125 0.34375 -0.5 1.078125l-1.234375 0q0.046875 -1.25 0.875 -1.890625q0.84375 -0.640625 2.328125 -0.640625zm-2.1875 5.703125q0 0.53125 0.390625 0.828125q0.390625 0.296875 1.078125 0.296875q1.046875 0 1.671875 -0.515625q0.640625 -0.53125 0.640625 -1.171875l0 -1.3125q-0.3125 0.234375 -0.8125 0.3125q-0.5 0.078125 -1.328125 0.1875q-0.84375 0.125 -1.25 0.453125q-0.390625 0.328125 -0.390625 0.921875zm8.247009 -8.421875l0 3.921875l0.03125 0q0.296875 -0.59375 0.921875 -0.890625q0.625 -0.3125 1.5 -0.3125q1.625 0 2.5625 1.125q0.9375 1.109375 0.9375 2.859375q0 1.765625 -0.9375 2.859375q-0.921875 1.078125 -2.53125 1.078125q-0.703125 0 -1.390625 -0.28125q-0.671875 -0.296875 -1.0625 -0.90625l-0.03125 0l0 1.015625l-1.234375 0l0 -10.46875l1.234375 0zm-0.03125 6.671875q0 1.328125 0.625 2.109375q0.640625 0.765625 1.765625 0.765625q1.078125 0 1.671875 -0.765625q0.59375 -0.78125 0.59375 -2.15625q0 -1.234375 -0.625 -2.015625q-0.625 -0.796875 -1.734375 -0.796875q-1.09375 0 -1.703125 0.8125q-0.59375 0.796875 -0.59375 2.046875zm8.750336 -6.671875l0 10.46875l-1.234375 0l0 -10.46875l1.234375 0zm5.0998993 2.71875q1.625 0 2.515625 1.171875q0.90625 1.171875 0.90625 3.015625l0 0.15625l-5.671875 0l0 0.078125q0 1.09375 0.625 1.75q0.640625 0.65625 1.734375 0.65625q0.828125 0 1.3125 -0.390625q0.5 -0.390625 0.65625 -1.09375l1.234375 0q-0.25 1.265625 -1.109375 1.921875q-0.84375 0.65625 -2.125 0.65625q-1.203125 0 -2.03125 -0.53125q-0.828125 -0.546875 -1.21875 -1.5q-0.390625 -0.96875 -0.390625 -1.96875q0 -1.6875 1.0 -2.796875q1.015625 -1.125 2.5625 -1.125zm-2.25 3.234375l4.359375 0q-0.0625 -0.921875 -0.671875 -1.53125q-0.609375 -0.609375 -1.53125 -0.609375q-0.859375 0 -1.46875 0.578125q-0.609375 0.578125 -0.6875 1.5625zm12.693985 -5.953125l0 10.46875l-1.390625 0l0 -10.46875l1.390625 0zm6.011627 0q2.375 0 3.65625 1.265625q1.296875 1.265625 1.296875 3.734375q0 2.75 -1.28125 4.109375q-1.265625 1.359375 -3.671875 1.359375l-3.671875 0l0 -10.46875l3.671875 0zm0.09375 9.296875q1.5625 0 2.5 -1.015625q0.953125 -1.03125 0.953125 -3.09375q0 -2.078125 -0.859375 -3.03125q-0.859375 -0.96875 -2.546875 -0.96875l-2.421875 0l0 8.109375l2.375 0z" fill-rule="nonzero"/><path fill="#000000" fill-opacity="0.0" d="m66.96372 322.87418l146.22931 0l0 25.480316l-146.22931 0z" fill-rule="evenodd"/><path fill="#000000" d="m81.58872 329.9756q1.84375 0 3.03125 0.890625q1.1875 0.890625 1.453125 2.578125l-1.390625 0q-0.203125 -1.09375 -1.015625 -1.6875q-0.8125 -0.609375 -2.09375 -0.609375q-1.671875 0 -2.625 1.25q-0.953125 1.234375 -0.953125 3.1875q0 1.796875 0.984375 3.0q0.984375 1.1875 2.59375 1.1875q1.5 0 2.421875 -0.90625q0.9375 -0.90625 0.9375 -2.34375l0 -0.171875l-3.34375 0l0 -1.171875l4.59375 0l0 5.515625l-0.875 0l-0.375 -1.296875q-0.5625 0.734375 -1.453125 1.140625q-0.875 0.40625 -1.90625 0.40625q-2.140625 0 -3.5625 -1.53125q-1.421875 -1.53125 -1.421875 -3.75q0 -2.46875 1.34375 -4.078125q1.34375 -1.609375 3.65625 -1.609375zm9.589752 2.96875q1.625 0 2.515625 1.171875q0.90625 1.171875 0.90625 3.015625l0 0.15625l-5.671875 0l0 0.078125q0 1.09375 0.625 1.75q0.640625 0.65625 1.734375 0.65625q0.828125 0 1.3125 -0.390625q0.5 -0.390625 0.65625 -1.09375l1.234375 0q-0.25 1.265625 -1.109375 1.921875q-0.84375 0.65625 -2.125 0.65625q-1.203125 0 -2.03125 -0.53125q-0.828125 -0.546875 -1.21875 -1.5q-0.390625 -0.96875 -0.390625 -1.96875q0 -1.6875 1.0 -2.796875q1.015625 -1.125 2.5625 -1.125zm-2.25 3.234375l4.359375 0q-0.0625 -0.921875 -0.671875 -1.53125q-0.609375 -0.609375 -1.53125 -0.609375q-0.859375 0 -1.46875 0.578125q-0.609375 0.578125 -0.6875 1.5625zm10.637634 -3.234375q1.359375 0 1.984375 0.703125q0.625 0.703125 0.625 2.0l0 5.046875l-1.25 0l0 -5.171875q0 -0.640625 -0.421875 -1.0625q-0.40625 -0.421875 -1.125 -0.421875q-1.0625 0 -1.65625 0.65625q-0.578125 0.640625 -0.578125 1.671875l0 4.328125l-1.25 0l0 -7.578125l1.171875 0l0 1.203125l0.03125 0q0.421875 -0.703125 1.015625 -1.03125q0.609375 -0.34375 1.453125 -0.34375zm7.635483 0q1.625 0 2.515625 1.171875q0.90625 1.171875 0.90625 3.015625l0 0.15625l-5.671875 0l0 0.078125q0 1.09375 0.625 1.75q0.640625 0.65625 1.734375 0.65625q0.828125 0 1.3125 -0.390625q0.5 -0.390625 0.65625 -1.09375l1.234375 0q-0.25 1.265625 -1.109375 1.921875q-0.84375 0.65625 -2.125 0.65625q-1.203125 0 -2.03125 -0.53125q-0.828125 -0.546875 -1.21875 -1.5q-0.390625 -0.96875 -0.390625 -1.96875q0 -1.6875 1.0 -2.796875q1.015625 -1.125 2.5625 -1.125zm-2.25 3.234375l4.359375 0q-0.0625 -0.921875 -0.671875 -1.53125q-0.609375 -0.609375 -1.53125 -0.609375q-0.859375 0 -1.46875 0.578125q-0.609375 0.578125 -0.6875 1.5625zm14.70961 -3.234375q1.359375 0 1.984375 0.703125q0.625 0.703125 0.625 2.0l0 5.046875l-1.25 0l0 -5.171875q0 -0.640625 -0.421875 -1.0625q-0.40625 -0.421875 -1.125 -0.421875q-1.0625 0 -1.65625 0.65625q-0.578125 0.640625 -0.578125 1.671875l0 4.328125l-1.25 0l0 -7.578125l1.171875 0l0 1.203125l0.03125 0q0.421875 -0.703125 1.015625 -1.03125q0.609375 -0.34375 1.453125 -0.34375zm7.572983 0q1.5468674 0 2.1874924 0.5625q0.65625 0.546875 0.65625 1.46875q0 3.9375 0 4.375q0 0.421875 0.390625 0.421875q0.09375 0 0.1875 -0.015625q0.109375 -0.03125 0.203125 -0.0625l0 0.96875q-0.171875 0.109375 -0.40625 0.15625q-0.21875 0.046875 -0.484375 0.046875q-0.515625 0 -0.796875 -0.28125q-0.265625 -0.296875 -0.265625 -0.890625q-0.5 0.59375 -1.1718674 0.890625q-0.671875 0.28125 -1.5 0.28125q-1.171875 0 -1.84375 -0.546875q-0.65625 -0.5625 -0.65625 -1.578125q0 -1.015625 0.640625 -1.609375q0.65625 -0.609375 3.078125 -0.90625q0.8124924 -0.109375 1.0937424 -0.3125q0.296875 -0.203125 0.296875 -0.625q0 -0.625 -0.40625 -0.9375q-0.40625 -0.3125 -1.2812424 -0.3125q-0.921875 0 -1.390625 0.359375q-0.453125 0.34375 -0.5 1.078125l-1.234375 0q0.046875 -1.25 0.875 -1.890625q0.84375 -0.640625 2.328125 -0.640625zm-2.1875 5.703125q0 0.53125 0.390625 0.828125q0.390625 0.296875 1.078125 0.296875q1.046875 0 1.6718674 -0.515625q0.640625 -0.53125 0.640625 -1.171875l0 -1.3125q-0.3125 0.234375 -0.8125 0.3125q-0.49999237 0.078125 -1.3281174 0.1875q-0.84375 0.125 -1.25 0.453125q-0.390625 0.328125 -0.390625 0.921875zm10.622002 -5.703125q0.828125 0 1.34375 0.34375q0.53125 0.328125 0.734375 0.9375q0.390625 -0.609375 1.0 -0.9375q0.625 -0.34375 1.375 -0.34375q1.28125 0 1.890625 0.578125q0.625 0.578125 0.625 1.5625l0 5.609375l-1.25 0l0 -5.03125q0 -0.8125 -0.34375 -1.21875q-0.34375 -0.40625 -1.109375 -0.40625q-0.9375 0 -1.46875 0.546875q-0.515625 0.546875 -0.515625 1.34375l0 4.765625l-1.25 0l0 -5.03125q0 -0.8125 -0.34375 -1.21875q-0.34375 -0.40625 -1.078125 -0.40625q-0.59375 0 -1.046875 0.296875q-0.453125 0.28125 -0.71875 0.78125q-0.25 0.484375 -0.25 0.828125l0 4.75l-1.25 0l0 -7.578125l1.171875 0l0 1.109375l0.03125 0q0.421875 -0.640625 1.03125 -0.953125q0.609375 -0.328125 1.421875 -0.328125zm12.002182 0q1.625 0 2.515625 1.171875q0.90625 1.171875 0.90625 3.015625l0 0.15625l-5.671875 0l0 0.078125q0 1.09375 0.625 1.75q0.640625 0.65625 1.734375 0.65625q0.828125 0 1.3125 -0.390625q0.5 -0.390625 0.65625 -1.09375l1.234375 0q-0.25 1.265625 -1.109375 1.921875q-0.84375 0.65625 -2.125 0.65625q-1.203125 0 -2.03125 -0.53125q-0.828125 -0.546875 -1.21875 -1.5q-0.390625 -0.96875 -0.390625 -1.96875q0 -1.6875 1.0 -2.796875q1.015625 -1.125 2.5625 -1.125zm-2.25 3.234375l4.359375 0q-0.0625 -0.921875 -0.671875 -1.53125q-0.609375 -0.609375 -1.53125 -0.609375q-0.859375 0 -1.46875 0.578125q-0.609375 0.578125 -0.6875 1.5625z" fill-rule="nonzero"/><path fill="#000000" fill-opacity="0.0" d="m66.96372 356.372l146.22931 0l0 25.480316l-146.22931 0z" fill-rule="evenodd"/><path fill="#000000" d="m81.58872 354.47342q1.84375 0 3.03125 0.890625q1.1875 0.890625 1.453125 2.578125l-1.390625 0q-0.203125 -1.09375 -1.015625 -1.6875q-0.8125 -0.609375 -2.09375 -0.609375q-1.671875 0 -2.625 1.25q-0.953125 1.234375 -0.953125 3.1875q0 1.796875 0.984375 3.0q0.984375 1.1875 2.59375 1.1875q1.5 0 2.421875 -0.90625q0.9375 -0.90625 0.9375 -2.34375l0 -0.171875l-3.34375 0l0 -1.171875l4.59375 0l0 5.515625l-0.875 0l-0.375 -1.296875q-0.5625 0.734375 -1.453125 1.140625q-0.875 0.40625 -1.90625 0.40625q-2.140625 0 -3.5625 -1.53125q-1.421875 -1.53125 -1.421875 -3.75q0 -2.46875 1.34375 -4.078125q1.34375 -1.609375 3.65625 -1.609375zm9.589752 2.96875q1.625 0 2.515625 1.171875q0.90625 1.171875 0.90625 3.015625l0 0.15625l-5.671875 0l0 0.078125q0 1.09375 0.625 1.75q0.640625 0.65625 1.734375 0.65625q0.828125 0 1.3125 -0.390625q0.5 -0.390625 0.65625 -1.09375l1.234375 0q-0.25 1.265625 -1.109375 1.921875q-0.84375 0.65625 -2.125 0.65625q-1.203125 0 -2.03125 -0.53125q-0.828125 -0.546875 -1.21875 -1.5q-0.390625 -0.96875 -0.390625 -1.96875q0 -1.6875 1.0 -2.796875q1.015625 -1.125 2.5625 -1.125zm-2.25 3.234375l4.359375 0q-0.0625 -0.921875 -0.671875 -1.53125q-0.609375 -0.609375 -1.53125 -0.609375q-0.859375 0 -1.46875 0.578125q-0.609375 0.578125 -0.6875 1.5625zm10.637634 -3.234375q1.359375 0 1.984375 0.703125q0.625 0.703125 0.625 2.0l0 5.046875l-1.25 0l0 -5.171875q0 -0.640625 -0.421875 -1.0625q-0.40625 -0.421875 -1.125 -0.421875q-1.0625 0 -1.65625 0.65625q-0.578125 0.640625 -0.578125 1.671875l0 4.328125l-1.25 0l0 -7.578125l1.171875 0l0 1.203125l0.03125 0q0.421875 -0.703125 1.015625 -1.03125q0.609375 -0.34375 1.453125 -0.34375zm7.635483 0q1.625 0 2.515625 1.171875q0.90625 1.171875 0.90625 3.015625l0 0.15625l-5.671875 0l0 0.078125q0 1.09375 0.625 1.75q0.640625 0.65625 1.734375 0.65625q0.828125 0 1.3125 -0.390625q0.5 -0.390625 0.65625 -1.09375l1.234375 0q-0.25 1.265625 -1.109375 1.921875q-0.84375 0.65625 -2.125 0.65625q-1.203125 0 -2.03125 -0.53125q-0.828125 -0.546875 -1.21875 -1.5q-0.390625 -0.96875 -0.390625 -1.96875q0 -1.6875 1.0 -2.796875q1.015625 -1.125 2.5625 -1.125zm-2.25 3.234375l4.359375 0q-0.0625 -0.921875 -0.671875 -1.53125q-0.609375 -0.609375 -1.53125 -0.609375q-0.859375 0 -1.46875 0.578125q-0.609375 0.578125 -0.6875 1.5625zm14.756485 -6.203125q1.75 0 2.765625 0.84375q1.03125 0.84375 1.09375 2.46875l-1.3125 0q-0.125 -1.0625 -0.78125 -1.59375q-0.640625 -0.546875 -1.828125 -0.546875q-1.109375 0 -1.734375 0.46875q-0.609375 0.46875 -0.609375 1.328125q0 0.609375 0.53125 1.0q0.53125 0.390625 2.84375 0.859375q1.671875 0.34375 2.5 1.0625q0.828125 0.703125 0.828125 1.953125q0 1.46875 -1.203125 2.296875q-1.1875 0.828125 -2.890625 0.828125q-1.890625 0 -3.09375 -0.953125q-1.203125 -0.953125 -1.21875 -2.734375l1.3125 0q0.015625 1.1875 0.859375 1.859375q0.84375 0.65625 2.1875 0.65625q1.265625 0 1.953125 -0.484375q0.703125 -0.5 0.703125 -1.421875q0 -0.75 -0.640625 -1.1875q-0.625 -0.453125 -2.3125 -0.78125q-2.21875 -0.421875 -2.984375 -1.09375q-0.765625 -0.671875 -0.765625 -1.765625q0 -1.40625 1.0625 -2.234375q1.078125 -0.828125 2.734375 -0.828125zm7.5121307 0.875l0 2.265625l1.4999924 0l0 1.109375l-1.4999924 0l0 4.734375q0 0.5625 0.375 0.59375q0.375 0.03125 0.7812424 0.03125l0.34375 0l0 1.109375l-1.0156174 0q-1.03125 0 -1.390625 -0.359375q-0.34375 -0.375 -0.34375 -1.234375l0 -4.875l-1.296875 0l0 -1.109375l1.296875 0l0 -2.265625l1.25 0zm5.9752274 2.09375q1.546875 0 2.1875 0.5625q0.65625 0.546875 0.65625 1.46875q0 3.9375 0 4.375q0 0.421875 0.390625 0.421875q0.09375 0 0.1875 -0.015625q0.109375 -0.03125 0.203125 -0.0625l0 0.96875q-0.171875 0.109375 -0.40625 0.15625q-0.21875 0.046875 -0.484375 0.046875q-0.515625 0 -0.796875 -0.28125q-0.265625 -0.296875 -0.265625 -0.890625q-0.5 0.59375 -1.171875 0.890625q-0.671875 0.28125 -1.5 0.28125q-1.171875 0 -1.84375 -0.546875q-0.65625 -0.5625 -0.65625 -1.578125q0 -1.015625 0.640625 -1.609375q0.65625 -0.609375 3.078125 -0.90625q0.8125 -0.109375 1.09375 -0.3125q0.296875 -0.203125 0.296875 -0.625q0 -0.625 -0.40625 -0.9375q-0.40625 -0.3125 -1.28125 -0.3125q-0.921875 0 -1.390625 0.359375q-0.453125 0.34375 -0.5 1.078125l-1.234375 0q0.046875 -1.25 0.875 -1.890625q0.84375 -0.640625 2.328125 -0.640625zm-2.1875 5.703125q0 0.53125 0.390625 0.828125q0.390625 0.296875 1.078125 0.296875q1.046875 0 1.671875 -0.515625q0.640625 -0.53125 0.640625 -1.171875l0 -1.3125q-0.3125 0.234375 -0.8125 0.3125q-0.5 0.078125 -1.328125 0.1875q-0.84375 0.125 -1.25 0.453125q-0.390625 0.328125 -0.390625 0.921875zm8.247009 -8.421875l0 3.921875l0.03125 0q0.296875 -0.59375 0.921875 -0.890625q0.625 -0.3125 1.5 -0.3125q1.625 0 2.5625 1.125q0.9375 1.109375 0.9375 2.859375q0 1.765625 -0.9375 2.859375q-0.921875 1.078125 -2.53125 1.078125q-0.703125 0 -1.390625 -0.28125q-0.671875 -0.296875 -1.0625 -0.90625l-0.03125 0l0 1.015625l-1.234375 0l0 -10.46875l1.234375 0zm-0.03125 6.671875q0 1.328125 0.625 2.109375q0.640625 0.765625 1.765625 0.765625q1.078125 0 1.671875 -0.765625q0.59375 -0.78125 0.59375 -2.15625q0 -1.234375 -0.625 -2.015625q-0.625 -0.796875 -1.734375 -0.796875q-1.09375 0 -1.703125 0.8125q-0.59375 0.796875 -0.59375 2.046875zm8.750336 -6.671875l0 10.46875l-1.234375 0l0 -10.46875l1.234375 0zm5.0998993 2.71875q1.625 0 2.515625 1.171875q0.90625 1.171875 0.90625 3.015625l0 0.15625l-5.671875 0l0 0.078125q0 1.09375 0.625 1.75q0.640625 0.65625 1.734375 0.65625q0.828125 0 1.3125 -0.390625q0.5 -0.390625 0.65625 -1.09375l1.234375 0q-0.25 1.265625 -1.109375 1.921875q-0.84375 0.65625 -2.125 0.65625q-1.203125 0 -2.03125 -0.53125q-0.828125 -0.546875 -1.21875 -1.5q-0.390625 -0.96875 -0.390625 -1.96875q0 -1.6875 1.0 -2.796875q1.015625 -1.125 2.5625 -1.125zm-2.25 3.234375l4.359375 0q-0.0625 -0.921875 -0.671875 -1.53125q-0.609375 -0.609375 -1.53125 -0.609375q-0.859375 0 -1.46875 0.578125q-0.609375 0.578125 -0.6875 1.5625zm12.693985 -5.953125l0 10.46875l-1.390625 0l0 -10.46875l1.390625 0zm6.011627 0q2.375 0 3.65625 1.265625q1.296875 1.265625 1.296875 3.734375q0 2.75 -1.28125 4.109375q-1.265625 1.359375 -3.671875 1.359375l-3.671875 0l0 -10.46875l3.671875 0zm0.09375 9.296875q1.5625 0 2.5 -1.015625q0.953125 -1.03125 0.953125 -3.09375q0 -2.078125 -0.859375 -3.03125q-0.859375 -0.96875 -2.546875 -0.96875l-2.421875 0l0 8.109375l2.375 0z" fill-rule="nonzero"/><path fill="#000000" d="m77.46372 372.72342l2.984375 9.078125l0.03125 0l3.015625 -9.078125l1.453125 0l-3.71875 10.46875l-1.59375 0l-3.6875 -10.46875l1.515625 0zm11.546371 2.71875q1.625 0 2.515625 1.171875q0.90625 1.171875 0.90625 3.015625l0 0.15625l-5.671875 0l0 0.078125q0 1.09375 0.625 1.75q0.640625 0.65625 1.734375 0.65625q0.828125 0 1.3125 -0.390625q0.5 -0.390625 0.65625 -1.09375l1.234375 0q-0.25 1.265625 -1.109375 1.921875q-0.84375 0.65625 -2.125 0.65625q-1.203125 0 -2.03125 -0.53125q-0.828125 -0.546875 -1.21875 -1.5q-0.390625 -0.96875 -0.390625 -1.96875q0 -1.6875 1.0 -2.796875q1.015625 -1.125 2.5625 -1.125zm-2.25 3.234375l4.359375 0q-0.0625 -0.921875 -0.671875 -1.53125q-0.609375 -0.609375 -1.53125 -0.609375q-0.859375 0 -1.46875 0.578125q-0.609375 0.578125 -0.6875 1.5625zm10.731384 -3.234375q0.046875 0 0.078125 0q0.046875 0 0.09375 0l0 1.3125q-1.390625 0 -2.0625 0.75q-0.671875 0.75 -0.671875 2.296875l0 3.390625l-1.25 0l0 -7.578125l1.171875 0l0 1.59375l0.03125 0q0.4375 -0.90625 1.078125 -1.328125q0.640625 -0.4375 1.53125 -0.4375zm3.6306458 0q1.53125 0 2.265625 0.59375q0.75 0.59375 0.828125 1.78125l-1.25 0l0 -0.015625q-0.046875 -0.609375 -0.53125 -0.9375q-0.46875 -0.328125 -1.21875 -0.328125q-0.75 0 -1.1875 0.265625q-0.421875 0.25 -0.421875 0.703125q0 0.40625 0.375 0.671875q0.390625 0.265625 1.15625 0.4375l1.171875 0.265625q1.109375 0.234375 1.671875 0.75q0.578125 0.5 0.578125 1.34375q0 1.125 -0.875 1.765625q-0.859375 0.625 -2.34375 0.625q-1.453125 0 -2.3125 -0.640625q-0.84375 -0.65625 -0.90625 -1.921875l1.25 0q0.015625 0.703125 0.546875 1.09375q0.546875 0.375 1.484375 0.375q0.90625 0 1.359375 -0.28125q0.46875 -0.296875 0.46875 -0.84375q0 -0.515625 -0.46875 -0.8125q-0.453125 -0.296875 -1.875 -0.578125q-1.4375 -0.28125 -2.03125 -0.796875q-0.578125 -0.515625 -0.578125 -1.359375q0 -1.0 0.8125 -1.578125q0.8125 -0.578125 2.03125 -0.578125zm6.125 -2.71875l0 1.53125l-1.234375 0l0 -1.53125l1.234375 0zm0 2.890625l0 7.578125l-1.234375 0l0 -7.578125l1.234375 0zm5.2092743 -0.171875q1.71875 0 2.703125 1.109375q0.984375 1.109375 0.984375 2.859375q0 1.765625 -1.015625 2.859375q-1.0 1.09375 -2.671875 1.09375q-1.640625 0 -2.65625 -1.0625q-1.015625 -1.078125 -1.015625 -2.890625q0 -1.796875 0.984375 -2.875q1.0 -1.09375 2.6875 -1.09375zm-2.359375 3.96875q0 1.3125 0.65625 2.09375q0.671875 0.765625 1.703125 0.765625q1.03125 0 1.6875 -0.78125q0.671875 -0.78125 0.671875 -2.078125q0 -1.296875 -0.671875 -2.078125q-0.65625 -0.796875 -1.703125 -0.796875q-1.0 0 -1.671875 0.78125q-0.671875 0.765625 -0.671875 2.09375zm11.181519 -3.96875q1.359375 0 1.984375 0.703125q0.625 0.703125 0.625 2.0l0 5.046875l-1.25 0l0 -5.171875q0 -0.640625 -0.421875 -1.0625q-0.40625 -0.421875 -1.125 -0.421875q-1.0625 0 -1.65625 0.65625q-0.578125 0.640625 -0.578125 1.671875l0 4.328125l-1.25 0l0 -7.578125l1.171875 0l0 1.203125l0.03125 0q0.421875 -0.703125 1.015625 -1.03125q0.609375 -0.34375 1.453125 -0.34375z" fill-rule="nonzero"/><path fill="#000000" fill-opacity="0.0" d="m66.96372 373.68695l146.22931 0l0 25.480316l-146.22931 0z" fill-rule="evenodd"/><path fill="#000000" fill-opacity="0.0" d="m213.19244 259.9616l71.48602 0l0 -37.196854l71.47461 0" fill-rule="evenodd"/><path stroke="#595959" stroke-width="1.0" stroke-linejoin="round" stroke-linecap="butt" d="m213.19244 259.9616l71.48602 0l0 -37.196854l71.47461 0" fill-rule="evenodd"/><path fill="#d9d2e9" d="m632.05945 163.0245l188.6518 0l0 211.06006l-188.6518 0z" fill-rule="evenodd"/><path stroke="#595959" stroke-width="2.0" stroke-linejoin="round" stroke-linecap="butt" d="m632.05945 163.0245l188.6518 0l0 211.06006l-188.6518 0z" fill-rule="evenodd"/><path fill="#d9d2e9" d="m632.05945 106.37281l188.6518 0l0 56.651695l-188.6518 0z" fill-rule="evenodd"/><path stroke="#595959" stroke-width="2.0" stroke-linejoin="round" stroke-linecap="butt" d="m632.05945 106.37281l188.6518 0l0 56.651695l-188.6518 0z" fill-rule="evenodd"/><path fill="#000000" d="m648.43445 119.98031q1.828125 0 2.90625 1.0q1.09375 0.984375 1.09375 2.9375q0 1.953125 -1.09375 2.9375q-1.078125 0.984375 -2.78125 0.984375l-4.28125 0l0 5.4531326l-1.765625 0l0 -13.312508l5.921875 0zm-0.484375 6.375q1.265625 0 1.984375 -0.59375q0.734375 -0.609375 0.734375 -1.84375q0 -1.234375 -0.71875 -1.84375q-0.71875 -0.609375 -2.109375 -0.609375l-3.5625 0l0 4.890625l3.671875 0zm11.322693 -6.375q3.03125 0 4.65625 1.609375q1.640625 1.59375 1.640625 4.734375q0 3.5156326 -1.625 5.2500076q-1.609375 1.71875 -4.671875 1.71875l-4.671875 0l0 -13.312508l4.671875 0zm0.109375 11.812508q2.0 0 3.203125 -1.296875q1.21875 -1.296875 1.21875 -3.9375076q0 -2.640625 -1.109375 -3.859375q-1.09375 -1.234375 -3.25 -1.234375l-3.078125 0l0 10.328133l3.015625 0zm14.042114 -11.812508q2.46875 0 3.34375 1.0q0.890625 0.984375 0.890625 2.25q0 1.0625 -0.515625 1.84375q-0.515625 0.765625 -1.453125 1.15625l0 0.03125q1.21875 0.265625 1.875 1.125q0.65625 0.8437576 0.65625 2.0781326q0 1.625 -1.140625 2.734375q-1.125 1.09375 -2.828125 1.09375l-6.515625 0l0 -13.312508l5.6875 0zm-0.28125 5.71875q1.328125 0 2.03125 -0.5q0.71875 -0.5 0.71875 -1.625q0 -1.0625 -0.59375 -1.578125q-0.59375 -0.53125 -2.140625 -0.53125l-3.65625 0l0 4.234375l3.640625 0zm0.875 6.0937576q1.078125 0 1.75 -0.640625q0.6875 -0.640625 0.6875 -1.734375q0 -1.125 -0.765625 -1.6718826q-0.765625 -0.5625 -2.203125 -0.5625l-3.984375 0l0 4.6093826l4.515625 0zm15.448303 -8.359383q1.765625 0 2.859375 0.84375q1.109375 0.828125 1.296875 2.46875l-1.625 0q-0.203125 -0.9375 -0.828125 -1.421875q-0.625 -0.5 -1.5625 -0.5q-1.484375 0 -2.25 0.984375q-0.765625 0.984375 -0.765625 2.7812576q0 1.609375 0.75 2.578125q0.765625 0.953125 2.078125 0.953125q1.15625 0 1.8125 -0.625q0.671875 -0.625 0.828125 -1.734375l1.625 0q-0.265625 1.8125 -1.359375 2.796875q-1.09375 0.96875 -2.890625 0.96875q-2.109375 0 -3.3125 -1.328125q-1.203125 -1.328125 -1.203125 -3.609375q0 -2.3593826 1.21875 -3.7500076q1.21875 -1.40625 3.328125 -1.40625zm7.582947 -3.453125l0 5.09375l0.03125 0q0.34375 -0.78125 1.171875 -1.203125q0.828125 -0.4375 1.875 -0.4375q1.75 0 2.53125 0.890625q0.796875 0.890625 0.796875 2.546875l0 6.4218826l-1.59375 0l0 -6.5937576q0 -0.8125 -0.53125 -1.34375q-0.515625 -0.53125 -1.4375 -0.53125q-1.34375 0 -2.09375 0.828125q-0.75 0.8125 -0.75 2.125l0 5.5156326l-1.59375 0l0 -13.312508l1.59375 0zm12.735107 3.453125q1.96875 0 2.78125 0.703125q0.828125 0.6875 0.828125 1.875q0 5.0156326 0 5.5625076q0 0.546875 0.5 0.546875q0.109375 0 0.234375 -0.03125q0.140625 -0.03125 0.25 -0.0625l0 1.234375q-0.21875 0.125 -0.5 0.1875q-0.28125 0.078125 -0.625 0.078125q-0.65625 0 -1.0 -0.375q-0.34375 -0.375 -0.34375 -1.125q-0.640625 0.75 -1.5 1.125q-0.84375 0.375 -1.90625 0.375q-1.484375 0 -2.34375 -0.703125q-0.84375 -0.71875 -0.84375 -2.015625q0 -1.296875 0.828125 -2.046875q0.828125 -0.7656326 3.90625 -1.1562576q1.03125 -0.140625 1.390625 -0.390625q0.375 -0.265625 0.375 -0.796875q0 -0.796875 -0.515625 -1.1875q-0.5 -0.40625 -1.625 -0.40625q-1.171875 0 -1.765625 0.453125q-0.59375 0.4375 -0.640625 1.375l-1.578125 0q0.078125 -1.609375 1.125 -2.40625q1.0625 -0.8125 2.96875 -0.8125zm-2.796875 7.2656326q0 0.671875 0.484375 1.046875q0.5 0.375 1.390625 0.375q1.34375 0 2.140625 -0.65625q0.796875 -0.671875 0.796875 -1.5l0 -1.65625q-0.390625 0.28125 -1.03125 0.390625q-0.640625 0.09375 -1.703125 0.234375q-1.046875 0.15625 -1.5625 0.578125q-0.515625 0.421875 -0.515625 1.1875zm10.551697 -10.718758l0 1.9375l-1.59375 0l0 -1.9375l1.59375 0zm0 3.671875l0 9.640633l-1.59375 0l0 -9.640633l1.59375 0zm7.1292114 -0.21875q1.75 0 2.53125 0.890625q0.796875 0.890625 0.796875 2.546875l0 6.4218826l-1.59375 0l0 -6.5937576q0 -0.8125 -0.53125 -1.34375q-0.515625 -0.53125 -1.4375 -0.53125q-1.34375 0 -2.09375 0.828125q-0.75 0.8125 -0.75 2.125l0 5.5156326l-1.59375 0l0 -9.640633l1.5 0l0 1.53125l0.03125 0q0.53125 -0.90625 1.296875 -1.328125q0.78125 -0.421875 1.84375 -0.421875z" fill-rule="nonzero"/><path fill="#000000" fill-opacity="0.0" d="m639.03906 174.97783l175.14105 0l0 36.676804l-175.14105 0z" fill-rule="evenodd"/><path fill="#000000" d="m651.35156 187.92747l0 10.46875l-2.296875 0l0 -10.46875l2.296875 0zm6.6036987 0q2.09375 0 3.390625 1.375q1.296875 1.359375 1.296875 3.8125q0 2.4375 -1.265625 3.859375q-1.265625 1.421875 -3.421875 1.421875l-4.578125 0l0 -10.46875l4.578125 0zm-0.171875 8.53125q1.09375 0 1.8125 -0.78125q0.734375 -0.796875 0.734375 -2.359375q0 -1.8125 -0.765625 -2.625q-0.75 -0.828125 -2.1875 -0.828125l-1.703125 0l0 6.59375l2.109375 0z" fill-rule="nonzero"/><path fill="#000000" fill-opacity="0.0" d="m639.0398 211.80983l175.14105 0l0 38.93901l-175.14105 0z" fill-rule="evenodd"/><path fill="#000000" fill-opacity="0.0" d="m639.0398 209.45923l175.14105 0l0 38.939026l-175.14105 0z" fill-rule="evenodd"/><path fill="#000000" d="m650.7117 224.165l0 2.265625l1.5 0l0 1.109375l-1.5 0l0 4.734375q0 0.5625 0.375 0.59375q0.375 0.03125 0.78125 0.03125l0.34375 0l0 1.109375l-1.015625 0q-1.03125 0 -1.390625 -0.359375q-0.34375 -0.375 -0.34375 -1.234375l0 -4.875l-1.296875 0l0 -1.109375l1.296875 0l0 -2.265625l1.25 0zm6.6470947 2.09375q0.046875 0 0.078125 0q0.046875 0 0.09375 0l0 1.3125q-1.390625 0 -2.0625 0.75q-0.671875 0.75 -0.671875 2.296875l0 3.390625l-1.25 0l0 -7.578125l1.171875 0l0 1.59375l0.03125 0q0.4375 -0.90625 1.078125 -1.328125q0.640625 -0.4375 1.53125 -0.4375zm4.2088013 0q1.546875 0 2.1875 0.5625q0.65625 0.546875 0.65625 1.46875q0 3.9375 0 4.375q0 0.421875 0.390625 0.421875q0.09375 0 0.1875 -0.015625q0.109375 -0.03125 0.203125 -0.0625l0 0.96875q-0.171875 0.109375 -0.40625 0.15625q-0.21875 0.046875 -0.484375 0.046875q-0.515625 0 -0.796875 -0.28125q-0.265625 -0.296875 -0.265625 -0.890625q-0.5 0.59375 -1.171875 0.890625q-0.671875 0.28125 -1.5 0.28125q-1.171875 0 -1.84375 -0.546875q-0.65625 -0.5625 -0.65625 -1.578125q0 -1.015625 0.640625 -1.609375q0.65625 -0.609375 3.078125 -0.90625q0.8125 -0.109375 1.09375 -0.3125q0.296875 -0.203125 0.296875 -0.625q0 -0.625 -0.40625 -0.9375q-0.40625 -0.3125 -1.28125 -0.3125q-0.921875 0 -1.390625 0.359375q-0.453125 0.34375 -0.5 1.078125l-1.234375 0q0.046875 -1.25 0.875 -1.890625q0.84375 -0.640625 2.328125 -0.640625zm-2.1875 5.703125q0 0.53125 0.390625 0.828125q0.390625 0.296875 1.078125 0.296875q1.046875 0 1.671875 -0.515625q0.640625 -0.53125 0.640625 -1.171875l0 -1.3125q-0.3125 0.234375 -0.8125 0.3125q-0.5 0.078125 -1.328125 0.1875q-0.84375 0.125 -1.25 0.453125q-0.390625 0.328125 -0.390625 0.921875zm10.637634 -5.703125q1.359375 0 1.984375 0.703125q0.625 0.703125 0.625 2.0l0 5.046875l-1.25 0l0 -5.171875q0 -0.640625 -0.421875 -1.0625q-0.40625 -0.421875 -1.125 -0.421875q-1.0625 0 -1.65625 0.65625q-0.578125 0.640625 -0.578125 1.671875l0 4.328125l-1.25 0l0 -7.578125l1.171875 0l0 1.203125l0.03125 0q0.421875 -0.703125 1.015625 -1.03125q0.609375 -0.34375 1.453125 -0.34375zm6.994812 0q1.53125 0 2.265625 0.59375q0.75 0.59375 0.828125 1.78125l-1.25 0l0 -0.015625q-0.046875 -0.609375 -0.53125 -0.9375q-0.46875 -0.328125 -1.21875 -0.328125q-0.75 0 -1.1875 0.265625q-0.421875 0.25 -0.421875 0.703125q0 0.40625 0.375 0.671875q0.390625 0.265625 1.15625 0.4375l1.171875 0.265625q1.109375 0.234375 1.671875 0.75q0.578125 0.5 0.578125 1.34375q0 1.125 -0.875 1.765625q-0.859375 0.625 -2.34375 0.625q-1.453125 0 -2.3125 -0.640625q-0.84375 -0.65625 -0.90625 -1.921875l1.25 0q0.015625 0.703125 0.546875 1.09375q0.546875 0.375 1.484375 0.375q0.90625 0 1.359375 -0.28125q0.46875 -0.296875 0.46875 -0.84375q0 -0.515625 -0.46875 -0.8125q-0.453125 -0.296875 -1.875 -0.578125q-1.4375 -0.28125 -2.03125 -0.796875q-0.578125 -0.515625 -0.578125 -1.359375q0 -1.0 0.8125 -1.578125q0.8125 -0.578125 2.03125 -0.578125zm7.96875 0q1.390625 0 2.25 0.65625q0.875 0.65625 1.03125 1.953125l-1.296875 0q-0.140625 -0.734375 -0.640625 -1.125q-0.484375 -0.390625 -1.234375 -0.390625q-1.15625 0 -1.765625 0.78125q-0.59375 0.765625 -0.59375 2.1875q0 1.25 0.59375 2.015625q0.59375 0.75 1.625 0.75q0.90625 0 1.421875 -0.484375q0.53125 -0.5 0.65625 -1.359375l1.265625 0q-0.203125 1.40625 -1.0625 2.171875q-0.859375 0.765625 -2.265625 0.765625q-1.65625 0 -2.609375 -1.03125q-0.9375 -1.046875 -0.9375 -2.828125q0 -1.859375 0.953125 -2.953125q0.953125 -1.109375 2.609375 -1.109375zm8.481384 0q0.046875 0 0.078125 0q0.046875 0 0.09375 0l0 1.3125q-1.390625 0 -2.0625 0.75q-0.671875 0.75 -0.671875 2.296875l0 3.390625l-1.25 0l0 -7.578125l1.171875 0l0 1.59375l0.03125 0q0.4375 -0.90625 1.078125 -1.328125q0.640625 -0.4375 1.53125 -0.4375zm2.4275513 -2.71875l0 1.53125l-1.234375 0l0 -1.53125l1.234375 0zm0 2.890625l0 7.578125l-1.234375 0l0 -7.578125l1.234375 0zm5.6780396 -0.171875q1.625 0 2.5625 1.125q0.9375 1.109375 0.9375 2.859375q0 1.765625 -0.9375 2.859375q-0.921875 1.078125 -2.53125 1.078125q-0.703125 0 -1.390625 -0.28125q-0.671875 -0.296875 -1.0625 -0.90625l-0.03125 0l0 3.921875l-1.234375 0l0 -10.484375l1.234375 0l0 1.03125l0.03125 0q0.296875 -0.59375 0.921875 -0.890625q0.640625 -0.3125 1.5 -0.3125zm-2.484375 3.953125q0 1.328125 0.625 2.109375q0.640625 0.765625 1.765625 0.765625q1.078125 0 1.671875 -0.765625q0.59375 -0.78125 0.59375 -2.15625q0 -1.234375 -0.625 -2.015625q-0.625 -0.796875 -1.734375 -0.796875q-1.09375 0 -1.703125 0.8125q-0.59375 0.796875 -0.59375 2.046875zm9.17218 -6.046875l0 2.265625l1.5 0l0 1.109375l-1.5 0l0 4.734375q0 0.5625 0.375 0.59375q0.375 0.03125 0.78125 0.03125l0.34375 0l0 1.109375l-1.015625 0q-1.03125 0 -1.390625 -0.359375q-0.34375 -0.375 -0.34375 -1.234375l0 -4.875l-1.296875 0l0 -1.109375l1.296875 0l0 -2.265625l1.25 0zm4.4752197 -0.625l0 4.5l5.515625 0l0 -4.5l1.390625 0l0 10.46875l-1.390625 0l0 -4.796875l-5.515625 0l0 4.796875l-1.390625 0l0 -10.46875l1.390625 0zm13.67804 -0.25q1.84375 0 3.03125 0.890625q1.1875 0.890625 1.453125 2.578125l-1.390625 0q-0.203125 -1.09375 -1.015625 -1.6875q-0.8125 -0.609375 -2.09375 -0.609375q-1.671875 0 -2.625 1.25q-0.953125 1.234375 -0.953125 3.1875q0 1.796875 0.984375 3.0q0.984375 1.1875 2.59375 1.1875q1.5 0 2.421875 -0.90625q0.9375 -0.90625 0.9375 -2.34375l0 -0.171875l-3.34375 0l0 -1.171875l4.59375 0l0 5.515625l-0.875 0l-0.375 -1.296875q-0.5625 0.734375 -1.453125 1.140625q-0.875 0.40625 -1.90625 0.40625q-2.140625 0 -3.5625 -1.53125q-1.421875 -1.53125 -1.421875 -3.75q0 -2.46875 1.34375 -4.078125q1.34375 -1.609375 3.65625 -1.609375zm8.105408 0.25l5.515625 8.5l0.03125 0l0 -8.5l1.3125 0l0 10.46875l-1.53125 0l-5.46875 -8.40625l-0.015625 0l0 8.40625l-1.328125 0l0 -10.46875l1.484375 0zm13.5529785 -0.25q1.75 0 2.90625 0.90625q1.171875 0.90625 1.40625 2.5l-1.390625 0q-0.234375 -1.078125 -1.015625 -1.65625q-0.765625 -0.578125 -1.921875 -0.578125q-1.65625 0 -2.59375 1.1875q-0.9375 1.171875 -0.9375 3.0625q0 2.0 0.921875 3.1875q0.921875 1.1875 2.625 1.1875q1.28125 0 2.09375 -0.8125q0.828125 -0.8125 0.9375 -2.203125l1.390625 0q-0.234375 2.03125 -1.421875 3.109375q-1.171875 1.078125 -3.109375 1.078125q-2.25 0 -3.546875 -1.484375q-1.296875 -1.5 -1.296875 -3.96875q0 -2.4375 1.34375 -3.96875q1.34375 -1.546875 3.609375 -1.546875z" fill-rule="nonzero"/><path fill="#000000" fill-opacity="0.0" d="m639.0398 328.425l175.14105 0l0 38.939026l-175.14105 0z" fill-rule="evenodd"/><path fill="#000000" fill-opacity="0.0" d="m512.2285 188.08395l63.405396 0l0 40.850403l63.397766 0" fill-rule="evenodd"/><path stroke="#595959" stroke-width="1.0" stroke-linejoin="round" stroke-linecap="butt" d="m512.2285 188.08395l63.405396 0l0 40.850403l63.397766 0" fill-rule="evenodd"/><path fill="#000000" fill-opacity="0.0" d="m218.64568 237.69292l45.984238 0l0 22.267715l-45.984238 0z" fill-rule="evenodd"/><path fill="#000000" d="m232.61443 253.62677l-1.171875 0l0 -7.46875q-0.421875 0.40625 -1.109375 0.8125q-0.6875 0.40625 -1.234375 0.609375l0 -1.140625q0.984375 -0.453125 1.71875 -1.109375q0.734375 -0.671875 1.03125 -1.28125l0.765625 0l0 9.578125z" fill-rule="nonzero"/><path fill="#000000" fill-opacity="0.0" d="m303.958 203.06824l45.984253 0l0 22.267715l-45.984253 0z" fill-rule="evenodd"/><path fill="#000000" d="m317.04553 214.29898q0 -1.6875 0.34375 -2.71875q0.359375 -1.03125 1.046875 -1.59375q0.6875 -0.5625 1.71875 -0.5625q0.78125 0 1.359375 0.3125q0.578125 0.296875 0.953125 0.890625q0.375 0.578125 0.59375 1.421875q0.21875 0.828125 0.21875 2.25q0 1.671875 -0.359375 2.703125q-0.34375 1.03125 -1.03125 1.59375q-0.671875 0.5625 -1.734375 0.5625q-1.375 0 -2.15625 -0.984375q-0.953125 -1.1875 -0.953125 -3.875zm1.203125 0q0 2.34375 0.546875 3.125q0.5625 0.78125 1.359375 0.78125q0.8125 0 1.359375 -0.78125q0.5625 -0.78125 0.5625 -3.125q0 -2.359375 -0.5625 -3.125q-0.546875 -0.78125 -1.359375 -0.78125q-0.8125 0 -1.296875 0.6875q-0.609375 0.875 -0.609375 3.21875zm6.8656006 4.703125l0 -1.328125l1.34375 0l0 1.328125l-1.34375 0zm3.7029724 0l0 -1.328125l1.34375 0l0 1.328125l-1.34375 0zm3.515503 0l0 -9.546875l1.296875 0l5.015625 7.5l0 -7.5l1.203125 0l0 9.546875l-1.296875 0l-5.015625 -7.5l0 7.5l-1.203125 0z" fill-rule="nonzero"/><path fill="#000000" fill-opacity="0.0" d="m586.0761 203.06824l45.984253 0l0 22.267715l-45.984253 0z" fill-rule="evenodd"/><path fill="#000000" d="m595.623 214.29898q0 -1.6875 0.34375 -2.71875q0.359375 -1.03125 1.046875 -1.59375q0.6875 -0.5625 1.71875 -0.5625q0.78125 0 1.359375 0.3125q0.578125 0.296875 0.953125 0.890625q0.375 0.578125 0.59375 1.421875q0.21875 0.828125 0.21875 2.25q0 1.671875 -0.359375 2.703125q-0.34375 1.03125 -1.03125 1.59375q-0.671875 0.5625 -1.734375 0.5625q-1.375 0 -2.15625 -0.984375q-0.953125 -1.1875 -0.953125 -3.875zm1.203125 0q0 2.34375 0.546875 3.125q0.5625 0.78125 1.359375 0.78125q0.8125 0 1.359375 -0.78125q0.5625 -0.78125 0.5625 -3.125q0 -2.359375 -0.5625 -3.125q-0.546875 -0.78125 -1.359375 -0.78125q-0.8125 0 -1.296875 0.6875q-0.609375 0.875 -0.609375 3.21875zm6.8656006 4.703125l0 -1.328125l1.34375 0l0 1.328125l-1.34375 0zm3.703003 0l0 -1.328125l1.34375 0l0 1.328125l-1.34375 0zm3.515503 0l0 -9.546875l1.296875 0l5.015625 7.5l0 -7.5l1.203125 0l0 9.546875l-1.296875 0l-5.015625 -7.5l0 7.5l-1.203125 0z" fill-rule="nonzero"/><path fill="#000000" fill-opacity="0.0" d="m512.02625 165.81627l45.984253 0l0 22.267715l-45.984253 0z" fill-rule="evenodd"/><path fill="#000000" d="m525.1138 177.04701q0 -1.6875 0.34375 -2.71875q0.359375 -1.03125 1.046875 -1.59375q0.6875 -0.5625 1.71875 -0.5625q0.78125 0 1.359375 0.3125q0.578125 0.296875 0.953125 0.890625q0.375 0.578125 0.59375 1.421875q0.21875 0.828125 0.21875 2.25q0 1.671875 -0.359375 2.703125q-0.34375 1.03125 -1.03125 1.59375q-0.671875 0.5625 -1.734375 0.5625q-1.375 0 -2.15625 -0.984375q-0.953125 -1.1875 -0.953125 -3.875zm1.203125 0q0 2.34375 0.546875 3.125q0.5625 0.78125 1.359375 0.78125q0.8125 0 1.359375 -0.78125q0.5625 -0.78125 0.5625 -3.125q0 -2.359375 -0.5625 -3.125q-0.546875 -0.78125 -1.359375 -0.78125q-0.8125 0 -1.296875 0.6875q-0.609375 0.875 -0.609375 3.21875zm6.8656006 4.703125l0 -1.328125l1.34375 0l0 1.328125l-1.34375 0zm3.703003 0l0 -1.328125l1.34375 0l0 1.328125l-1.34375 0zm3.515442 0l0 -9.546875l1.296875 0l5.015686 7.5l0 -7.5l1.203125 0l0 9.546875l-1.296875 0l-5.015686 -7.5l0 7.5l-1.203125 0z" fill-rule="nonzero"/><path fill="#d9d2e9" d="m632.084 489.58105l119.18109 0l0 138.11023l-119.18109 0z" fill-rule="evenodd"/><path stroke="#595959" stroke-width="2.0" stroke-linejoin="round" stroke-linecap="butt" d="m632.084 489.58105l119.18109 0l0 138.11023l-119.18109 0z" fill-rule="evenodd"/><path fill="#d9d2e9" d="m632.084 452.5102l119.18109 0l0 37.07086l-119.18109 0z" fill-rule="evenodd"/><path stroke="#595959" stroke-width="2.0" stroke-linejoin="round" stroke-linecap="butt" d="m632.084 452.5102l119.18109 0l0 37.07086l-119.18109 0z" fill-rule="evenodd"/><path fill="#000000" d="m648.459 466.11768q1.828125 0 2.90625 1.0q1.09375 0.984375 1.09375 2.9375q0 1.953125 -1.09375 2.9375q-1.078125 0.984375 -2.78125 0.984375l-4.28125 0l0 5.453125l-1.765625 0l0 -13.3125l5.921875 0zm-0.484375 6.375q1.265625 0 1.984375 -0.59375q0.734375 -0.609375 0.734375 -1.84375q0 -1.234375 -0.71875 -1.84375q-0.71875 -0.609375 -2.109375 -0.609375l-3.5625 0l0 4.890625l3.671875 0zm11.322693 -6.375q3.03125 0 4.65625 1.609375q1.640625 1.59375 1.640625 4.734375q0 3.515625 -1.625 5.25q-1.609375 1.71875 -4.671875 1.71875l-4.671875 0l0 -13.3125l4.671875 0zm0.109375 11.8125q2.0 0 3.203125 -1.296875q1.21875 -1.296875 1.21875 -3.9375q0 -2.640625 -1.109375 -3.859375q-1.09375 -1.234375 -3.25 -1.234375l-3.078125 0l0 10.328125l3.015625 0zm14.042114 -11.8125q2.46875 0 3.34375 1.0q0.890625 0.984375 0.890625 2.25q0 1.0625 -0.515625 1.84375q-0.515625 0.765625 -1.453125 1.15625l0 0.03125q1.21875 0.265625 1.875 1.125q0.65625 0.84375 0.65625 2.078125q0 1.625 -1.140625 2.734375q-1.125 1.09375 -2.828125 1.09375l-6.515625 0l0 -13.3125l5.6875 0zm-0.28125 5.71875q1.328125 0 2.03125 -0.5q0.71875 -0.5 0.71875 -1.625q0 -1.0625 -0.59375 -1.578125q-0.59375 -0.53125 -2.140625 -0.53125l-3.65625 0l0 4.234375l3.640625 0zm0.875 6.09375q1.078125 0 1.75 -0.640625q0.6875 -0.640625 0.6875 -1.734375q0 -1.125 -0.765625 -1.671875q-0.765625 -0.5625 -2.203125 -0.5625l-3.984375 0l0 4.609375l4.515625 0z" fill-rule="nonzero"/><path fill="#000000" fill-opacity="0.0" d="m636.4934 497.4029l110.64563 0l0 24.0l-110.64563 0z" fill-rule="evenodd"/><path fill="#000000" d="m648.8059 504.01413l0 10.4687805l-2.296875 0l0 -10.4687805l2.296875 0zm6.6036987 0q2.09375 0 3.390625 1.375q1.296875 1.359375 1.296875 3.8125q0 2.4375 -1.265625 3.8594055q-1.265625 1.421875 -3.421875 1.421875l-4.578125 0l0 -10.4687805l4.578125 0zm-0.171875 8.5312805q1.09375 0 1.8125 -0.7812805q0.734375 -0.796875 0.734375 -2.359375q0 -1.8125 -0.765625 -2.625q-0.75 -0.828125 -2.1875 -0.828125l-1.703125 0l0 6.5937805l2.109375 0z" fill-rule="nonzero"/><path fill="#000000" fill-opacity="0.0" d="m636.49384 521.50446l110.64569 0l0 25.480286l-110.64569 0z" fill-rule="evenodd"/><path fill="#000000" d="m650.1032 531.5746q1.359375 0 1.984375 0.703125q0.625 0.703125 0.625 2.0l0 5.046875l-1.25 0l0 -5.171875q0 -0.640625 -0.421875 -1.0625q-0.40625 -0.421875 -1.125 -0.421875q-1.0625 0 -1.65625 0.65625q-0.578125 0.640625 -0.578125 1.671875l0 4.328125l-1.25 0l0 -7.578125l1.171875 0l0 1.203125l0.03125 0q0.421875 -0.703125 1.015625 -1.03125q0.609375 -0.34375 1.453125 -0.34375zm7.572998 0q1.546875 0 2.1875 0.5625q0.65625 0.546875 0.65625 1.46875q0 3.9375 0 4.375q0 0.421875 0.390625 0.421875q0.09375 0 0.1875 -0.015625q0.109375 -0.03125 0.203125 -0.0625l0 0.96875q-0.171875 0.109375 -0.40625 0.15625q-0.21875 0.046875 -0.484375 0.046875q-0.515625 0 -0.796875 -0.28125q-0.265625 -0.296875 -0.265625 -0.890625q-0.5 0.59375 -1.171875 0.890625q-0.671875 0.28125 -1.5 0.28125q-1.171875 0 -1.84375 -0.546875q-0.65625 -0.5625 -0.65625 -1.578125q0 -1.015625 0.640625 -1.609375q0.65625 -0.609375 3.078125 -0.90625q0.8125 -0.109375 1.09375 -0.3125q0.296875 -0.203125 0.296875 -0.625q0 -0.625 -0.40625 -0.9375q-0.40625 -0.3125 -1.28125 -0.3125q-0.921875 0 -1.390625 0.359375q-0.453125 0.34375 -0.5 1.078125l-1.234375 0q0.046875 -1.25 0.875 -1.890625q0.84375 -0.640625 2.328125 -0.640625zm-2.1875 5.703125q0 0.53125 0.390625 0.828125q0.390625 0.296875 1.078125 0.296875q1.046875 0 1.671875 -0.515625q0.640625 -0.53125 0.640625 -1.171875l0 -1.3125q-0.3125 0.234375 -0.8125 0.3125q-0.5 0.078125 -1.328125 0.1875q-0.84375 0.125 -1.25 0.453125q-0.390625 0.328125 -0.390625 0.921875zm10.622009 -5.703125q0.828125 0 1.34375 0.34375q0.53125 0.328125 0.734375 0.9375q0.390625 -0.609375 1.0 -0.9375q0.625 -0.34375 1.375 -0.34375q1.28125 0 1.890625 0.578125q0.625 0.578125 0.625 1.5625l0 5.609375l-1.25 0l0 -5.03125q0 -0.8125 -0.34375 -1.21875q-0.34375 -0.40625 -1.109375 -0.40625q-0.9375 0 -1.46875 0.546875q-0.515625 0.546875 -0.515625 1.34375l0 4.765625l-1.25 0l0 -5.03125q0 -0.8125 -0.34375 -1.21875q-0.34375 -0.40625 -1.078125 -0.40625q-0.59375 0 -1.046875 0.296875q-0.453125 0.28125 -0.71875 0.78125q-0.25 0.484375 -0.25 0.828125l0 4.75l-1.25 0l0 -7.578125l1.171875 0l0 1.109375l0.03125 0q0.421875 -0.640625 1.03125 -0.953125q0.609375 -0.328125 1.421875 -0.328125zm12.002136 0q1.625 0 2.515625 1.171875q0.90625 1.171875 0.90625 3.015625l0 0.15625l-5.671875 0l0 0.078125q0 1.09375 0.625 1.75q0.640625 0.65625 1.734375 0.65625q0.828125 0 1.3125 -0.390625q0.5 -0.390625 0.65625 -1.09375l1.234375 0q-0.25 1.265625 -1.109375 1.921875q-0.84375 0.65625 -2.125 0.65625q-1.203125 0 -2.03125 -0.53125q-0.828125 -0.546875 -1.21875 -1.5q-0.390625 -0.96875 -0.390625 -1.96875q0 -1.6875 1.0 -2.796875q1.015625 -1.125 2.5625 -1.125zm-2.25 3.234375l4.359375 0q-0.0625 -0.921875 -0.671875 -1.53125q-0.609375 -0.609375 -1.53125 -0.609375q-0.859375 0 -1.46875 0.578125q-0.609375 0.578125 -0.6875 1.5625z" fill-rule="nonzero"/><path fill="#000000" fill-opacity="0.0" d="m636.49384 546.868l110.64569 0l0 25.480286l-110.64569 0z" fill-rule="evenodd"/><path fill="#000000" d="m651.2907 554.21936q1.4375 0 2.28125 0.78125q0.859375 0.78125 0.859375 2.3125q0 1.546875 -0.859375 2.328125q-0.84375 0.765625 -2.1875 0.765625l-3.359375 0l0 4.28125l-1.390625 0l0 -10.46875l4.65625 0zm-0.390625 5.015625q1.0 0 1.5625 -0.46875q0.578125 -0.46875 0.578125 -1.453125q0 -0.96875 -0.5625 -1.4375q-0.5625 -0.46875 -1.65625 -0.46875l-2.796875 0l0 3.828125l2.875 0zm8.902771 -5.015625q2.375 0 3.65625 1.265625q1.296875 1.265625 1.296875 3.734375q0 2.75 -1.28125 4.109375q-1.265625 1.359375 -3.671875 1.359375l-3.671875 0l0 -10.46875l3.671875 0zm0.09375 9.296875q1.5625 0 2.5 -1.015625q0.953125 -1.03125 0.953125 -3.09375q0 -2.078125 -0.859375 -3.03125q-0.859375 -0.96875 -2.546875 -0.96875l-2.421875 0l0 8.109375l2.375 0zm11.022583 -9.296875q1.9375 0 2.625 0.796875q0.703125 0.78125 0.703125 1.765625q0 0.828125 -0.40625 1.4375q-0.40625 0.609375 -1.140625 0.921875l0 0.015625q0.953125 0.21875 1.46875 0.890625q0.515625 0.671875 0.515625 1.640625q0 1.28125 -0.890625 2.140625q-0.890625 0.859375 -2.234375 0.859375l-5.109375 0l0 -10.46875l4.46875 0zm-0.21875 4.5q1.046875 0 1.59375 -0.390625q0.5625 -0.390625 0.5625 -1.28125q0 -0.828125 -0.46875 -1.234375q-0.453125 -0.40625 -1.671875 -0.40625l-2.875 0l0 3.3125l2.859375 0zm0.6875 4.796875q0.84375 0 1.375 -0.5q0.53125 -0.515625 0.53125 -1.375q0 -0.875 -0.609375 -1.3125q-0.59375 -0.4375 -1.71875 -0.4375l-3.125 0l0 3.625l3.546875 0zm13.612366 -9.546875q1.75 0 2.90625 0.90625q1.171875 0.90625 1.40625 2.5l-1.390625 0q-0.234375 -1.078125 -1.015625 -1.65625q-0.765625 -0.578125 -1.921875 -0.578125q-1.65625 0 -2.59375 1.1875q-0.9375 1.171875 -0.9375 3.0625q0 2.0 0.921875 3.1875q0.921875 1.1875 2.625 1.1875q1.28125 0 2.09375 -0.8125q0.828125 -0.8125 0.9375 -2.203125l1.390625 0q-0.234375 2.03125 -1.421875 3.109375q-1.171875 1.078125 -3.109375 1.078125q-2.25 0 -3.546875 -1.484375q-1.296875 -1.5 -1.296875 -3.96875q0 -2.4375 1.34375 -3.96875q1.34375 -1.546875 3.609375 -1.546875zm7.1936646 0.25l0 4.0l0.03125 0q0.265625 -0.609375 0.90625 -0.9375q0.65625 -0.34375 1.484375 -0.34375q1.359375 0 1.984375 0.703125q0.625 0.703125 0.625 2.0l0 5.046875l-1.25 0l0 -5.171875q0 -0.640625 -0.421875 -1.0625q-0.40625 -0.421875 -1.125 -0.421875q-1.0625 0 -1.65625 0.65625q-0.578125 0.640625 -0.578125 1.671875l0 4.328125l-1.25 0l0 -10.46875l1.25 0zm9.994873 2.71875q1.546875 0 2.1875 0.5625q0.65625 0.546875 0.65625 1.46875q0 3.9375 0 4.375q0 0.421875 0.390625 0.421875q0.09375 0 0.1875 -0.015625q0.109375 -0.03125 0.203125 -0.0625l0 0.96875q-0.171875 0.109375 -0.40625 0.15625q-0.21875 0.046875 -0.484375 0.046875q-0.515625 0 -0.796875 -0.28125q-0.265625 -0.296875 -0.265625 -0.890625q-0.5 0.59375 -1.171875 0.890625q-0.671875 0.28125 -1.5 0.28125q-1.171875 0 -1.84375 -0.546875q-0.65625 -0.5625 -0.65625 -1.578125q0 -1.015625 0.640625 -1.609375q0.65625 -0.609375 3.078125 -0.90625q0.8125 -0.109375 1.09375 -0.3125q0.296875 -0.203125 0.296875 -0.625q0 -0.625 -0.40625 -0.9375q-0.40625 -0.3125 -1.28125 -0.3125q-0.921875 0 -1.390625 0.359375q-0.453125 0.34375 -0.5 1.078125l-1.234375 0q0.046875 -1.25 0.875 -1.890625q0.84375 -0.640625 2.328125 -0.640625zm-2.1875 5.703125q0 0.53125 0.390625 0.828125q0.390625 0.296875 1.078125 0.296875q1.046875 0 1.671875 -0.515625q0.640625 -0.53125 0.640625 -1.171875l0 -1.3125q-0.3125 0.234375 -0.8125 0.3125q-0.5 0.078125 -1.328125 0.1875q-0.84375 0.125 -1.25 0.453125q-0.390625 0.328125 -0.390625 0.921875zm8.278259 -8.421875l0 1.53125l-1.234375 0l0 -1.53125l1.234375 0zm0 2.890625l0 7.578125l-1.234375 0l0 -7.578125l1.234375 0zm5.6154785 -0.171875q1.359375 0 1.984375 0.703125q0.625 0.703125 0.625 2.0l0 5.046875l-1.25 0l0 -5.171875q0 -0.640625 -0.421875 -1.0625q-0.40625 -0.421875 -1.125 -0.421875q-1.0625 0 -1.65625 0.65625q-0.578125 0.640625 -0.578125 1.671875l0 4.328125l-1.25 0l0 -7.578125l1.171875 0l0 1.203125l0.03125 0q0.421875 -0.703125 1.015625 -1.03125q0.609375 -0.34375 1.453125 -0.34375zm10.2074585 -2.71875l0 10.46875l-1.390625 0l0 -10.46875l1.390625 0zm6.0116577 0q2.375 0 3.65625 1.265625q1.296875 1.265625 1.296875 3.734375q0 2.75 -1.28125 4.109375q-1.265625 1.359375 -3.671875 1.359375l-3.671875 0l0 -10.46875l3.671875 0zm0.09375 9.296875q1.5625 0 2.5 -1.015625q0.953125 -1.03125 0.953125 -3.09375q0 -2.078125 -0.859375 -3.03125q-0.859375 -0.96875 -2.546875 -0.96875l-2.421875 0l0 8.109375l2.375 0z" fill-rule="nonzero"/><path fill="#000000" fill-opacity="0.0" d="m636.49384 597.8133l110.64569 0l0 25.480286l-110.64569 0z" fill-rule="evenodd"/><path fill="#000000" fill-opacity="0.0" d="m814.1801 193.31624l25.000183 0l0 366.2992l-92.0553 0" fill-rule="evenodd"/><path stroke="#595959" stroke-width="1.0" stroke-linejoin="round" stroke-linecap="butt" d="m814.1801 193.31624l25.000183 0l0 366.2992l-92.0553 0" fill-rule="evenodd"/><path fill="#000000" fill-opacity="0.0" d="m756.853 537.34644l45.984253 0l0 22.267761l-45.984253 0z" fill-rule="evenodd"/><path fill="#000000" d="m766.3999 548.5772q0 -1.6875 0.34375 -2.71875q0.359375 -1.03125 1.046875 -1.59375q0.6875 -0.5625 1.71875 -0.5625q0.78125 0 1.359375 0.3125q0.578125 0.296875 0.953125 0.890625q0.375 0.578125 0.59375 1.421875q0.21875 0.828125 0.21875 2.25q0 1.671875 -0.359375 2.703125q-0.34375 1.03125 -1.03125 1.59375q-0.671875 0.5625 -1.734375 0.5625q-1.375 0 -2.15625 -0.984375q-0.953125 -1.1875 -0.953125 -3.875zm1.203125 0q0 2.34375 0.546875 3.125q0.5625 0.78125 1.359375 0.78125q0.8125 0 1.359375 -0.78125q0.5625 -0.78125 0.5625 -3.125q0 -2.359375 -0.5625 -3.125q-0.546875 -0.78125 -1.359375 -0.78125q-0.8125 0 -1.296875 0.6875q-0.609375 0.875 -0.609375 3.21875zm6.8656006 4.703125l0 -1.328125l1.34375 0l0 1.328125l-1.34375 0zm3.703003 0l0 -1.328125l1.34375 0l0 1.328125l-1.34375 0zm3.515442 0l0 -9.546875l1.296875 0l5.015625 7.5l0 -7.5l1.203125 0l0 9.546875l-1.296875 0l-5.015625 -7.5l0 7.5l-1.203125 0z" fill-rule="nonzero"/><path fill="#000000" fill-opacity="0.0" d="m827.1391 171.04724l45.984253 0l0 22.267715l-45.984253 0z" fill-rule="evenodd"/><path fill="#000000" d="m861.6796 186.9811l-1.171875 0l0 -7.46875q-0.421875 0.40625 -1.109375 0.8125q-0.6875 0.40625 -1.234375 0.609375l0 -1.140625q0.984375 -0.453125 1.71875 -1.109375q0.734375 -0.671875 1.03125 -1.28125l0.765625 0l0 9.578125z" fill-rule="nonzero"/><path fill="#000000" fill-opacity="0.0" d="m360.39935 316.86658l110.64566 0l0 43.77951l-110.64566 0z" fill-rule="evenodd"/><path fill="#000000" d="m377.75873 333.36758l0 1.1875l-5.828125 0l0 3.3125l5.4375 0l0 1.171875l-5.4375 0l0 3.625l5.890625 0l0 1.171875l-7.28125 0l0 -10.46875l7.21875 0zm5.202606 2.71875q1.359375 0 1.984375 0.703125q0.625 0.703125 0.625 2.0l0 5.046875l-1.25 0l0 -5.171875q0 -0.640625 -0.421875 -1.0625q-0.40625 -0.421875 -1.125 -0.421875q-1.0625 0 -1.65625 0.65625q-0.578125 0.640625 -0.578125 1.671875l0 4.328125l-1.25 0l0 -7.578125l1.171875 0l0 1.203125l0.03125 0q0.421875 -0.703125 1.015625 -1.03125q0.609375 -0.34375 1.453125 -0.34375zm11.244873 -2.71875l0 10.46875l-1.234375 0l0 -1.015625l-0.03125 0q-0.296875 0.578125 -0.9375 0.890625q-0.640625 0.296875 -1.484375 0.296875q-1.59375 0 -2.546875 -1.09375q-0.9375 -1.109375 -0.9375 -2.890625q0 -1.75 0.921875 -2.84375q0.921875 -1.09375 2.53125 -1.09375q0.734375 0 1.40625 0.296875q0.671875 0.296875 1.046875 0.890625l0.03125 0l0 -3.90625l1.234375 0zm-5.859375 6.734375q0 1.234375 0.625 2.03125q0.640625 0.78125 1.71875 0.78125q1.109375 0 1.703125 -0.78125q0.609375 -0.796875 0.609375 -2.078125q0 -1.296875 -0.625 -2.078125q-0.609375 -0.796875 -1.78125 -0.796875q-1.0625 0 -1.65625 0.78125q-0.59375 0.78125 -0.59375 2.140625z" fill-rule="nonzero"/><path fill="#000000" fill-opacity="0.0" d="m355.96396 268.77002l156.06302 0l0 43.77951l-156.06302 0z" fill-rule="evenodd"/><path fill="#000000" d="m369.6202 276.02103q1.75 0 2.765625 0.84375q1.03125 0.84375 1.09375 2.46875l-1.3125 0q-0.125 -1.0625 -0.78125 -1.59375q-0.640625 -0.546875 -1.828125 -0.546875q-1.109375 0 -1.734375 0.46875q-0.609375 0.46875 -0.609375 1.328125q0 0.609375 0.53125 1.0q0.53125 0.390625 2.84375 0.859375q1.671875 0.34375 2.5 1.0625q0.828125 0.703125 0.828125 1.953125q0 1.46875 -1.203125 2.296875q-1.1875 0.828125 -2.890625 0.828125q-1.890625 0 -3.09375 -0.953125q-1.203125 -0.953125 -1.21875 -2.734375l1.3125 0q0.015625 1.1875 0.859375 1.859375q0.84375 0.65625 2.1875 0.65625q1.265625 0 1.953125 -0.484375q0.703125 -0.5 0.703125 -1.421875q0 -0.75 -0.640625 -1.1875q-0.625 -0.453125 -2.3125 -0.78125q-2.21875 -0.421875 -2.984375 -1.09375q-0.765625 -0.671875 -0.765625 -1.765625q0 -1.40625 1.0625 -2.234375q1.078125 -0.828125 2.734375 -0.828125zm7.512146 0.875l0 2.265625l1.5 0l0 1.109375l-1.5 0l0 4.734375q0 0.5625 0.375 0.59375q0.375 0.03125 0.78125 0.03125l0.34375 0l0 1.109375l-1.015625 0q-1.03125 0 -1.390625 -0.359375q-0.34375 -0.375 -0.34375 -1.234375l0 -4.875l-1.296875 0l0 -1.109375l1.296875 0l0 -2.265625l1.25 0zm5.9752197 2.09375q1.546875 0 2.1875 0.5625q0.65625 0.546875 0.65625 1.46875q0 3.9375 0 4.375q0 0.421875 0.390625 0.421875q0.09375 0 0.1875 -0.015625q0.109375 -0.03125 0.203125 -0.0625l0 0.96875q-0.171875 0.109375 -0.40625 0.15625q-0.21875 0.046875 -0.484375 0.046875q-0.515625 0 -0.796875 -0.28125q-0.265625 -0.296875 -0.265625 -0.890625q-0.5 0.59375 -1.171875 0.890625q-0.671875 0.28125 -1.5 0.28125q-1.171875 0 -1.84375 -0.546875q-0.65625 -0.5625 -0.65625 -1.578125q0 -1.015625 0.640625 -1.609375q0.65625 -0.609375 3.078125 -0.90625q0.8125 -0.109375 1.09375 -0.3125q0.296875 -0.203125 0.296875 -0.625q0 -0.625 -0.40625 -0.9375q-0.40625 -0.3125 -1.28125 -0.3125q-0.921875 0 -1.390625 0.359375q-0.453125 0.34375 -0.5 1.078125l-1.234375 0q0.046875 -1.25 0.875 -1.890625q0.84375 -0.640625 2.328125 -0.640625zm-2.1875 5.703125q0 0.53125 0.390625 0.828125q0.390625 0.296875 1.078125 0.296875q1.046875 0 1.671875 -0.515625q0.640625 -0.53125 0.640625 -1.171875l0 -1.3125q-0.3125 0.234375 -0.8125 0.3125q-0.5 0.078125 -1.328125 0.1875q-0.84375 0.125 -1.25 0.453125q-0.390625 0.328125 -0.390625 0.921875zm8.247009 -8.421875l0 3.921875l0.03125 0q0.296875 -0.59375 0.921875 -0.890625q0.625 -0.3125 1.5 -0.3125q1.625 0 2.5625 1.125q0.9375 1.109375 0.9375 2.859375q0 1.765625 -0.9375 2.859375q-0.921875 1.078125 -2.53125 1.078125q-0.703125 0 -1.390625 -0.28125q-0.671875 -0.296875 -1.0625 -0.90625l-0.03125 0l0 1.015625l-1.234375 0l0 -10.46875l1.234375 0zm-0.03125 6.671875q0 1.328125 0.625 2.109375q0.640625 0.765625 1.765625 0.765625q1.078125 0 1.671875 -0.765625q0.59375 -0.78125 0.59375 -2.15625q0 -1.234375 -0.625 -2.015625q-0.625 -0.796875 -1.734375 -0.796875q-1.09375 0 -1.703125 0.8125q-0.59375 0.796875 -0.59375 2.046875zm8.750336 -6.671875l0 10.46875l-1.234375 0l0 -10.46875l1.234375 0zm5.0999146 2.71875q1.625 0 2.515625 1.171875q0.90625 1.171875 0.90625 3.015625l0 0.15625l-5.671875 0l0 0.078125q0 1.09375 0.625 1.75q0.640625 0.65625 1.734375 0.65625q0.828125 0 1.3125 -0.390625q0.5 -0.390625 0.65625 -1.09375l1.234375 0q-0.25 1.265625 -1.109375 1.921875q-0.84375 0.65625 -2.125 0.65625q-1.203125 0 -2.03125 -0.53125q-0.828125 -0.546875 -1.21875 -1.5q-0.390625 -0.96875 -0.390625 -1.96875q0 -1.6875 1.0 -2.796875q1.015625 -1.125 2.5625 -1.125zm-2.25 3.234375l4.359375 0q-0.0625 -0.921875 -0.671875 -1.53125q-0.609375 -0.609375 -1.53125 -0.609375q-0.859375 0 -1.46875 0.578125q-0.609375 0.578125 -0.6875 1.5625zm11.60022 -5.953125l2.984375 9.078125l0.03125 0l3.015625 -9.078125l1.453125 0l-3.71875 10.46875l-1.59375 0l-3.6875 -10.46875l1.515625 0zm11.546387 2.71875q1.625 0 2.515625 1.171875q0.90625 1.171875 0.90625 3.015625l0 0.15625l-5.671875 0l0 0.078125q0 1.09375 0.625 1.75q0.640625 0.65625 1.734375 0.65625q0.828125 0 1.3125 -0.390625q0.5 -0.390625 0.65625 -1.09375l1.234375 0q-0.25 1.265625 -1.109375 1.921875q-0.84375 0.65625 -2.125 0.65625q-1.203125 0 -2.03125 -0.53125q-0.828125 -0.546875 -1.21875 -1.5q-0.390625 -0.96875 -0.390625 -1.96875q0 -1.6875 1.0 -2.796875q1.015625 -1.125 2.5625 -1.125zm-2.25 3.234375l4.359375 0q-0.0625 -0.921875 -0.671875 -1.53125q-0.609375 -0.609375 -1.53125 -0.609375q-0.859375 0 -1.46875 0.578125q-0.609375 0.578125 -0.6875 1.5625zm10.731384 -3.234375q0.046875 0 0.078125 0q0.046875 0 0.09375 0l0 1.3125q-1.390625 0 -2.0625 0.75q-0.671875 0.75 -0.671875 2.296875l0 3.390625l-1.25 0l0 -7.578125l1.171875 0l0 1.59375l0.03125 0q0.4375 -0.90625 1.078125 -1.328125q0.640625 -0.4375 1.53125 -0.4375zm3.6306458 0q1.53125 0 2.265625 0.59375q0.75 0.59375 0.828125 1.78125l-1.25 0l0 -0.015625q-0.046875 -0.609375 -0.53125 -0.9375q-0.46875 -0.328125 -1.21875 -0.328125q-0.75 0 -1.1875 0.265625q-0.421875 0.25 -0.421875 0.703125q0 0.40625 0.375 0.671875q0.390625 0.265625 1.15625 0.4375l1.171875 0.265625q1.109375 0.234375 1.671875 0.75q0.578125 0.5 0.578125 1.34375q0 1.125 -0.875 1.765625q-0.859375 0.625 -2.34375 0.625q-1.453125 0 -2.3125 -0.640625q-0.84375 -0.65625 -0.90625 -1.921875l1.25 0q0.015625 0.703125 0.546875 1.09375q0.546875 0.375 1.484375 0.375q0.90625 0 1.359375 -0.28125q0.46875 -0.296875 0.46875 -0.84375q0 -0.515625 -0.46875 -0.8125q-0.453125 -0.296875 -1.875 -0.578125q-1.4375 -0.28125 -2.03125 -0.796875q-0.578125 -0.515625 -0.578125 -1.359375q0 -1.0 0.8125 -1.578125q0.8125 -0.578125 2.03125 -0.578125zm6.125 -2.71875l0 1.53125l-1.234375 0l0 -1.53125l1.234375 0zm0 2.890625l0 7.578125l-1.234375 0l0 -7.578125l1.234375 0zm5.209259 -0.171875q1.71875 0 2.703125 1.109375q0.984375 1.109375 0.984375 2.859375q0 1.765625 -1.015625 2.859375q-1.0 1.09375 -2.671875 1.09375q-1.640625 0 -2.65625 -1.0625q-1.015625 -1.078125 -1.015625 -2.890625q0 -1.796875 0.984375 -2.875q1.0 -1.09375 2.6875 -1.09375zm-2.359375 3.96875q0 1.3125 0.65625 2.09375q0.671875 0.765625 1.703125 0.765625q1.03125 0 1.6875 -0.78125q0.671875 -0.78125 0.671875 -2.078125q0 -1.296875 -0.671875 -2.078125q-0.65625 -0.796875 -1.703125 -0.796875q-1.0 0 -1.671875 0.78125q-0.671875 0.765625 -0.671875 2.09375zm11.181519 -3.96875q1.359375 0 1.984375 0.703125q0.625 0.703125 0.625 2.0l0 5.046875l-1.25 0l0 -5.171875q0 -0.640625 -0.421875 -1.0625q-0.40625 -0.421875 -1.125 -0.421875q-1.0625 0 -1.65625 0.65625q-0.578125 0.640625 -0.578125 1.671875l0 4.328125l-1.25 0l0 -7.578125l1.171875 0l0 1.203125l0.03125 0q0.421875 -0.703125 1.015625 -1.03125q0.609375 -0.34375 1.453125 -0.34375zm10.2074585 -2.71875l0 10.46875l-1.390625 0l0 -10.46875l1.390625 0zm6.011627 0q2.375 0 3.65625 1.265625q1.296875 1.265625 1.296875 3.734375q0 2.75 -1.28125 4.109375q-1.265625 1.359375 -3.671875 1.359375l-3.671875 0l0 -10.46875l3.671875 0zm0.09375 9.296875q1.5625 0 2.5 -1.015625q0.953125 -1.03125 0.953125 -3.09375q0 -2.078125 -0.859375 -3.03125q-0.859375 -0.96875 -2.546875 -0.96875l-2.421875 0l0 8.109375l2.375 0z" fill-rule="nonzero"/><path fill="#000000" fill-opacity="0.0" d="m638.81146 237.69283l175.1496 0l0 38.929123l-175.1496 0z" fill-rule="evenodd"/><path fill="#000000" d="m652.4677 251.51865q1.75 0 2.765625 0.84375q1.03125 0.84375 1.09375 2.46875l-1.3125 0q-0.125 -1.0625 -0.78125 -1.59375q-0.640625 -0.546875 -1.828125 -0.546875q-1.109375 0 -1.734375 0.46875q-0.609375 0.46875 -0.609375 1.328125q0 0.609375 0.53125 1.0q0.53125 0.390625 2.84375 0.859375q1.671875 0.34375 2.5 1.0625q0.828125 0.703125 0.828125 1.953125q0 1.46875 -1.203125 2.296875q-1.1875 0.828125 -2.890625 0.828125q-1.890625 0 -3.09375 -0.953125q-1.203125 -0.953125 -1.21875 -2.734375l1.3125 0q0.015625 1.1875 0.859375 1.859375q0.84375 0.65625 2.1875 0.65625q1.265625 0 1.953125 -0.484375q0.703125 -0.5 0.703125 -1.421875q0 -0.75 -0.640625 -1.1875q-0.625 -0.453125 -2.3125 -0.78125q-2.21875 -0.421875 -2.984375 -1.09375q-0.765625 -0.671875 -0.765625 -1.765625q0 -1.40625 1.0625 -2.234375q1.078125 -0.828125 2.734375 -0.828125zm8.93396 2.96875q1.625 0 2.515625 1.171875q0.90625 1.171875 0.90625 3.015625l0 0.15625l-5.671875 0l0 0.078125q0 1.09375 0.625 1.75q0.640625 0.65625 1.734375 0.65625q0.828125 0 1.3125 -0.390625q0.5 -0.390625 0.65625 -1.09375l1.234375 0q-0.25 1.265625 -1.109375 1.921875q-0.84375 0.65625 -2.125 0.65625q-1.203125 0 -2.03125 -0.53125q-0.828125 -0.546875 -1.21875 -1.5q-0.390625 -0.96875 -0.390625 -1.96875q0 -1.6875 1.0 -2.796875q1.015625 -1.125 2.5625 -1.125zm-2.25 3.234375l4.359375 0q-0.0625 -0.921875 -0.671875 -1.53125q-0.609375 -0.609375 -1.53125 -0.609375q-0.859375 0 -1.46875 0.578125q-0.609375 0.578125 -0.6875 1.5625zm10.012634 -3.234375q0.734375 0 1.40625 0.296875q0.671875 0.296875 1.046875 0.890625l0.03125 0l0 -1.015625l1.234375 0l0 10.484375l-1.234375 0l0 -3.921875l-0.03125 0q-0.296875 0.578125 -0.9375 0.890625q-0.640625 0.296875 -1.484375 0.296875q-1.59375 0 -2.546875 -1.09375q-0.9375 -1.109375 -0.9375 -2.890625q0 -1.75 0.921875 -2.84375q0.9375 -1.09375 2.53125 -1.09375zm-2.140625 4.015625q0 1.234375 0.625 2.03125q0.640625 0.78125 1.71875 0.78125q1.109375 0 1.703125 -0.78125q0.609375 -0.796875 0.609375 -2.078125q0 -1.296875 -0.625 -2.078125q-0.609375 -0.796875 -1.78125 -0.796875q-1.0625 0 -1.65625 0.78125q-0.59375 0.78125 -0.59375 2.140625zm9.031616 -3.84375l0 5.171875q0 0.640625 0.40625 1.0625q0.40625 0.421875 1.140625 0.421875q1.0625 0 1.640625 -0.65625q0.59375 -0.65625 0.59375 -1.671875l0 -4.328125l1.25 0l0 7.578125l-1.171875 0l0 -1.203125l-0.03125 0q-0.421875 0.71875 -1.046875 1.046875q-0.625 0.328125 -1.421875 0.328125q-1.328125 0 -1.96875 -0.671875q-0.640625 -0.6875 -0.640625 -2.03125l0 -5.046875l1.25 0zm10.057373 -0.171875q1.625 0 2.515625 1.171875q0.90625 1.171875 0.90625 3.015625l0 0.15625l-5.671875 0l0 0.078125q0 1.09375 0.625 1.75q0.640625 0.65625 1.734375 0.65625q0.828125 0 1.3125 -0.390625q0.5 -0.390625 0.65625 -1.09375l1.234375 0q-0.25 1.265625 -1.109375 1.921875q-0.84375 0.65625 -2.125 0.65625q-1.203125 0 -2.03125 -0.53125q-0.828125 -0.546875 -1.21875 -1.5q-0.390625 -0.96875 -0.390625 -1.96875q0 -1.6875 1.0 -2.796875q1.015625 -1.125 2.5625 -1.125zm-2.25 3.234375l4.359375 0q-0.0625 -0.921875 -0.671875 -1.53125q-0.609375 -0.609375 -1.53125 -0.609375q-0.859375 0 -1.46875 0.578125q-0.609375 0.578125 -0.6875 1.5625zm10.637634 -3.234375q1.359375 0 1.984375 0.703125q0.625 0.703125 0.625 2.0l0 5.046875l-1.25 0l0 -5.171875q0 -0.640625 -0.421875 -1.0625q-0.40625 -0.421875 -1.125 -0.421875q-1.0625 0 -1.65625 0.65625q-0.578125 0.640625 -0.578125 1.671875l0 4.328125l-1.25 0l0 -7.578125l1.171875 0l0 1.203125l0.03125 0q0.421875 -0.703125 1.015625 -1.03125q0.609375 -0.34375 1.453125 -0.34375zm7.635437 0q1.390625 0 2.25 0.65625q0.875 0.65625 1.03125 1.953125l-1.296875 0q-0.140625 -0.734375 -0.640625 -1.125q-0.484375 -0.390625 -1.234375 -0.390625q-1.15625 0 -1.765625 0.78125q-0.59375 0.765625 -0.59375 2.1875q0 1.25 0.59375 2.015625q0.59375 0.75 1.625 0.75q0.90625 0 1.421875 -0.484375q0.53125 -0.5 0.65625 -1.359375l1.265625 0q-0.203125 1.40625 -1.0625 2.171875q-0.859375 0.765625 -2.265625 0.765625q-1.65625 0 -2.609375 -1.03125q-0.9375 -1.046875 -0.9375 -2.828125q0 -1.859375 0.953125 -2.953125q0.953125 -1.109375 2.609375 -1.109375zm7.8720093 0q1.625 0 2.515625 1.171875q0.90625 1.171875 0.90625 3.015625l0 0.15625l-5.671875 0l0 0.078125q0 1.09375 0.625 1.75q0.640625 0.65625 1.734375 0.65625q0.828125 0 1.3125 -0.390625q0.5 -0.390625 0.65625 -1.09375l1.234375 0q-0.25 1.265625 -1.109375 1.921875q-0.84375 0.65625 -2.125 0.65625q-1.203125 0 -2.03125 -0.53125q-0.828125 -0.546875 -1.21875 -1.5q-0.390625 -0.96875 -0.390625 -1.96875q0 -1.6875 1.0 -2.796875q1.015625 -1.125 2.5625 -1.125zm-2.25 3.234375l4.359375 0q-0.0625 -0.921875 -0.671875 -1.53125q-0.609375 -0.609375 -1.53125 -0.609375q-0.859375 0 -1.46875 0.578125q-0.609375 0.578125 -0.6875 1.5625z" fill-rule="nonzero"/><path fill="#000000" fill-opacity="0.0" d="m638.81146 267.96054l175.1496 0l0 38.92914l-175.1496 0z" fill-rule="evenodd"/><path fill="#000000" d="m653.9521 282.03635q1.359375 0 2.234375 0.734375q0.875 0.71875 0.875 2.015625q0 1.03125 -0.453125 1.71875q-0.453125 0.671875 -1.375 0.921875l0 0.03125q0.796875 0.15625 1.171875 0.75q0.375 0.578125 0.4375 2.0q0.03125 0.90625 0.171875 1.4375q0.140625 0.515625 0.40625 0.859375l-1.546875 0q-0.140625 -0.171875 -0.1875 -0.34375q-0.03125 -0.171875 -0.0625 -0.453125l-0.0625 -1.15625q-0.015625 -0.8125 -0.34375 -1.640625q-0.328125 -0.84375 -1.4375 -0.875l-3.4375 0l0 4.46875l-1.390625 0l0 -10.46875l5.0 0zm-0.625 4.828125q1.15625 0 1.75 -0.453125q0.59375 -0.453125 0.59375 -1.40625q0 -0.84375 -0.484375 -1.3125q-0.46875 -0.46875 -1.328125 -0.46875l-3.515625 0l0 3.640625l2.984375 0zm8.618469 -2.109375q1.625 0 2.515625 1.171875q0.90625 1.171875 0.90625 3.015625l0 0.15625l-5.671875 0l0 0.078125q0 1.09375 0.625 1.75q0.640625 0.65625 1.734375 0.65625q0.828125 0 1.3125 -0.390625q0.5 -0.390625 0.65625 -1.09375l1.234375 0q-0.25 1.265625 -1.109375 1.921875q-0.84375 0.65625 -2.125 0.65625q-1.203125 0 -2.03125 -0.53125q-0.828125 -0.546875 -1.21875 -1.5q-0.390625 -0.96875 -0.390625 -1.96875q0 -1.6875 1.0 -2.796875q1.015625 -1.125 2.5625 -1.125zm-2.25 3.234375l4.359375 0q-0.0625 -0.921875 -0.671875 -1.53125q-0.609375 -0.609375 -1.53125 -0.609375q-0.859375 0 -1.46875 0.578125q-0.609375 0.578125 -0.6875 1.5625zm9.481384 -3.234375q1.53125 0 2.265625 0.59375q0.75 0.59375 0.828125 1.78125l-1.25 0l0 -0.015625q-0.046875 -0.609375 -0.53125 -0.9375q-0.46875 -0.328125 -1.21875 -0.328125q-0.75 0 -1.1875 0.265625q-0.421875 0.25 -0.421875 0.703125q0 0.40625 0.375 0.671875q0.390625 0.265625 1.15625 0.4375l1.171875 0.265625q1.109375 0.234375 1.671875 0.75q0.578125 0.5 0.578125 1.34375q0 1.125 -0.875 1.765625q-0.859375 0.625 -2.34375 0.625q-1.453125 0 -2.3125 -0.640625q-0.84375 -0.65625 -0.90625 -1.921875l1.25 0q0.015625 0.703125 0.546875 1.09375q0.546875 0.375 1.484375 0.375q0.90625 0 1.359375 -0.28125q0.46875 -0.296875 0.46875 -0.84375q0 -0.515625 -0.46875 -0.8125q-0.453125 -0.296875 -1.875 -0.578125q-1.4375 -0.28125 -2.03125 -0.796875q-0.578125 -0.515625 -0.578125 -1.359375q0 -1.0 0.8125 -1.578125q0.8125 -0.578125 2.03125 -0.578125zm8.078125 0q1.71875 0 2.703125 1.109375q0.984375 1.109375 0.984375 2.859375q0 1.765625 -1.015625 2.859375q-1.0 1.09375 -2.671875 1.09375q-1.640625 0 -2.65625 -1.0625q-1.015625 -1.078125 -1.015625 -2.890625q0 -1.796875 0.984375 -2.875q1.0 -1.09375 2.6875 -1.09375zm-2.359375 3.96875q0 1.3125 0.65625 2.09375q0.671875 0.765625 1.703125 0.765625q1.03125 0 1.6875 -0.78125q0.671875 -0.78125 0.671875 -2.078125q0 -1.296875 -0.671875 -2.078125q-0.65625 -0.796875 -1.703125 -0.796875q-1.0 0 -1.671875 0.78125q-0.671875 0.765625 -0.671875 2.09375zm8.822144 -6.6875l0 10.46875l-1.234375 0l0 -10.46875l1.234375 0zm3.1936646 2.890625l0 5.171875q0 0.640625 0.40625 1.0625q0.40625 0.421875 1.140625 0.421875q1.0625 0 1.640625 -0.65625q0.59375 -0.65625 0.59375 -1.671875l0 -4.328125l1.25 0l0 7.578125l-1.171875 0l0 -1.203125l-0.03125 0q-0.421875 0.71875 -1.046875 1.046875q-0.625 0.328125 -1.421875 0.328125q-1.328125 0 -1.96875 -0.671875q-0.640625 -0.6875 -0.640625 -2.03125l0 -5.046875l1.25 0zm8.635498 -2.265625l0 2.265625l1.5 0l0 1.109375l-1.5 0l0 4.734375q0 0.5625 0.375 0.59375q0.375 0.03125 0.78125 0.03125l0.34375 0l0 1.109375l-1.015625 0q-1.03125 0 -1.390625 -0.359375q-0.34375 -0.375 -0.34375 -1.234375l0 -4.875l-1.296875 0l0 -1.109375l1.296875 0l0 -2.265625l1.25 0zm4.1939697 -0.625l0 1.53125l-1.234375 0l0 -1.53125l1.234375 0zm0 2.890625l0 7.578125l-1.234375 0l0 -7.578125l1.234375 0zm5.2092896 -0.171875q1.71875 0 2.703125 1.109375q0.984375 1.109375 0.984375 2.859375q0 1.765625 -1.015625 2.859375q-1.0 1.09375 -2.671875 1.09375q-1.640625 0 -2.65625 -1.0625q-1.015625 -1.078125 -1.015625 -2.890625q0 -1.796875 0.984375 -2.875q1.0 -1.09375 2.6875 -1.09375zm-2.359375 3.96875q0 1.3125 0.65625 2.09375q0.671875 0.765625 1.703125 0.765625q1.03125 0 1.6875 -0.78125q0.671875 -0.78125 0.671875 -2.078125q0 -1.296875 -0.671875 -2.078125q-0.65625 -0.796875 -1.703125 -0.796875q-1.0 0 -1.671875 0.78125q-0.671875 0.765625 -0.671875 2.09375zm11.181519 -3.96875q1.359375 0 1.984375 0.703125q0.625 0.703125 0.625 2.0l0 5.046875l-1.25 0l0 -5.171875q0 -0.640625 -0.421875 -1.0625q-0.40625 -0.421875 -1.125 -0.421875q-1.0625 0 -1.65625 0.65625q-0.578125 0.640625 -0.578125 1.671875l0 4.328125l-1.25 0l0 -7.578125l1.171875 0l0 1.203125l0.03125 0q0.421875 -0.703125 1.015625 -1.03125q0.609375 -0.34375 1.453125 -0.34375z" fill-rule="nonzero"/></g></svg>